<?xml version="1.0" encoding="UTF-8"?>
<svg width="200px" height="100px" viewBox="0 0 200 100" version="1.1" xmlns="http://www.w3.org/2000/svg" xmlns:xlink="http://www.w3.org/1999/xlink">
    <title>Artboard Copy 3</title>
    <defs>
        <polygon id="path-1" points="0 0 22.9623914 0 22.9623914 25.7047277 0 25.7047277"></polygon>
        <polygon id="path-3" points="0 0 23.4834594 0 23.4834594 16.8087289 0 16.8087289"></polygon>
    </defs>
    <g id="Artboard-Copy-3" stroke="none" stroke-width="1" fill="none" fill-rule="evenodd">
        <rect id="Rectangle" fill="#FFFFFF" x="0" y="0" width="200" height="100"></rect>
        <rect id="Rectangle-Copy" fill="#FFFFFF" x="0" y="0" width="200" height="100"></rect>
        <g id="Group">
            <rect id="Rectangle-Copy-2" fill="#FFFFFF" x="0" y="0" width="200" height="100"></rect>
            <g id="Group-13" transform="translate(64.000000, 36.000000)">
                <g id="Group-3" transform="translate(48.037609, 1.294002)">
                    <mask id="mask-2" fill="white">
                        <use xlink:href="#path-1"></use>
                    </mask>
                    <g id="Clip-2"></g>
                    <path d="M0,15.1081229 L0,1.91402868 C3.85478428,0.385346482 7.46660944,0.00508149208 7.46660944,0.00508149208 L7.46660944,14.6101366 C7.46660944,17.3270411 8.8926375,19.0996349 11.4416209,19.0996349 C14.0348546,19.0996349 15.4992886,17.3270411 15.4992886,14.6101366 L15.5009584,0 C15.5009584,0 19.6045461,0.504761546 22.9592187,1.87422366 C22.9592187,3.00909022 22.9633933,15.1106636 22.9633933,15.1106636 C22.9633933,21.4972522 18.6001482,25.7047277 11.4007103,25.7047277 C4.29144275,25.7047277 0,21.4947115 0,15.1081229" id="Fill-1" fill="#60A531" mask="url(#mask-2)"></path>
                </g>
                <path d="M1.84306612,6.41707758 C2.41247545,11.3198705 5.21026235,15.1843452 9.10011289,17.2999398 C8.41882548,16.1947152 8.0422806,14.5322204 8.0422806,13.0950051 C8.0422806,9.22544887 10.9227237,6.6779275 14.1170933,6.6779275 C16.0716201,6.6779275 17.6888428,7.55448489 18.8026141,8.94003839 L23.4497289,3.52147401 C21.5035513,1.59643543 18.6231082,0.000846915346 14.054475,0.000846915346 C8.75946918,0.000846915346 4.27683181,2.22992811 1.84306612,6.41707758" id="Fill-4" fill="#1E5B42"></path>
                <g id="Group-8" transform="translate(0.000000, 10.191271)">
                    <mask id="mask-4" fill="white">
                        <use xlink:href="#path-3"></use>
                    </mask>
                    <g id="Clip-7"></g>
                    <path d="M14.2493432,10.8625362 C7.5842484,10.8625362 1.98450005,6.25023525 0.375626477,0 C0.134337186,1.05017503 -8.34911041e-05,2.16640946 -8.34911041e-05,3.34616253 C-8.34911041e-05,11.7501035 6.09977657,16.8087289 13.9395912,16.8087289 C17.6340726,16.8087289 20.8000553,15.9211616 23.4834594,14.3027064 L20.0302673,9.63620281 C18.381318,10.3916513 16.3683475,10.8625362 14.2493432,10.8625362" id="Fill-6" fill="#60A531" mask="url(#mask-4)"></path>
                </g>
                <path d="M36.5087395,20.1288064 C33.0254907,20.1288064 30.7829196,17.5795912 30.4272475,14.3282832 C28.3249415,16.1025709 25.8068498,17.6109271 23.1952481,18.5857267 C25.1247275,23.9331501 30.1542316,26.9998306 36.2958372,26.9998306 C40.0170357,26.9998306 43.5270017,25.8327813 45.7244876,23.6511273 L41.3295159,18.1461776 C40.1072061,19.572383 38.3029633,20.1288064 36.5087395,20.1288064" id="Fill-9" fill="#60A531"></path>
                <path d="M44.8132657,2.68641548 C42.0463705,0.492904731 39.1851304,0 36.2629417,0 C28.4615329,0 22.3449747,5.24409982 22.3449747,13.4778108 C22.3449747,14.5051191 22.4376498,15.4816125 22.6079716,16.4047503 C25.6754348,15.2292318 28.4164477,13.3744871 30.6556792,11.025144 L30.6648632,11.0285316 C31.4229624,8.50895848 33.7314914,6.6779275 36.4624854,6.6779275 C37.8542822,6.6779275 38.9889263,7.07343697 39.9808006,7.8254978 C42.8353614,5.52358189 46.2685156,3.96186999 46.2685156,3.96186999 C45.80514,3.48844431 45.3200567,3.07006813 44.8132657,2.68641548" id="Fill-11" fill="#1E5B42"></path>
            </g>
        </g>
    </g>
</svg>