<?xml version="1.0" encoding="UTF-8"?>
<svg width="200px" height="100px" viewBox="0 0 200 100" version="1.1" xmlns="http://www.w3.org/2000/svg" xmlns:xlink="http://www.w3.org/1999/xlink">
    <title>Artboard Copy 8</title>
    <g id="Artboard-Copy-8" stroke="none" stroke-width="1" fill="none" fill-rule="evenodd">
        <rect id="Rectangle" fill="#FFFFFF" x="0" y="0" width="200" height="100"></rect>
        <rect id="Rectangle-Copy" fill="#FFFFFF" x="0" y="0" width="200" height="100"></rect>
        <g id="Group">
            <rect id="Rectangle-Copy-2" fill="#FFFFFF" x="0" y="0" width="200" height="100"></rect>
            <g id="Group-35" transform="translate(43.000000, 36.000000)">
                <path d="M0,19.9704812 L0,28.6091117 L22.7901177,28.6091117 C16.4122295,24.0200836 9.07651785,21.1470549 0,19.9704812" id="Fill-1" fill="#274A97"></path>
                <path d="M21.5548295,0.0039088826 C22.6228787,1.62609516 23.250025,3.729074 23.2310206,5.7734196 C23.1854099,10.4249899 19.2704964,14.3534169 14.3977595,14.5996765 C18.6547528,16.1202318 23.2310206,18.4929236 27.8110893,21.8311093 L27.8110893,0.0039088826 L21.5548295,0.0039088826 Z" id="Fill-3" fill="#274A97"></path>
                <path d="M20.1370987,5.55452217 C20.1370987,2.81830435 18.6623545,1.00067395 17.5334911,0.0039088826 L0,0.0039088826 L0,11.2575819 C10.2053813,12.1957137 20.1370987,13.0791212 20.1370987,5.55452217" id="Fill-5" fill="#274A97"></path>
                <path d="M0,16.8824639 C11.5318908,17.8166869 22.075551,23.5666532 27.8148901,28.6052029 L27.8148901,25.6657231 C14.8234588,15.0726513 0,14.4120501 0,14.4120501 L0,16.8824639 Z" id="Fill-7" fill="#274A97"></path>
                <path d="M23.2310206,5.7734196 C23.250025,3.729074 22.6228787,1.62218628 21.5548295,0 L17.5334911,0 C18.6661554,0.996765063 20.1408995,2.81830435 20.1408995,5.55061329 C20.1408995,13.0713034 10.2091821,12.1918048 0,11.253673 L0,14.4120501 C0,14.4120501 14.8272597,15.0726513 27.8148901,25.6657231 L27.8148901,21.8272004 C23.2348215,18.4929236 18.6547528,16.1202318 14.4015604,14.5957676 C19.2704964,14.3573258 23.1854099,10.4328077 23.2310206,5.7734196" id="Fill-9" fill="#F0B60F"></path>
                <path d="M67.6443837,14.7443052 L70.5976728,14.7443052 L71.9773947,11.5663836 L79.7045977,11.5663836 L81.0805188,14.7443052 L84.0338079,14.7443052 L77.6483179,0.0078177652 L74.0374754,0.0078177652 L72.8515987,0.0078177652 L72.8515987,0.355708316 C73.2544927,0.500336973 73.4597406,0.734869929 73.4597406,1.06321607 C73.4597406,1.27038684 73.379922,1.54400863 73.2278865,1.87235476 L67.6443837,14.7443052 Z M78.4617077,8.74026149 L73.1898776,8.74026149 L75.8238922,2.68149346 L78.4617077,8.74026149 Z" id="Fill-11" fill="#274A97"></path>
                <path d="M99.9063115,1.13748484 L99.9063115,14.7443052 L113.426066,14.7443052 L113.426066,11.9142742 L102.832994,11.9142742 L102.832994,8.67771937 L109.864635,8.67771937 L109.864635,5.84768837 L102.832994,5.84768837 L102.832994,2.83393988 L112.962358,2.83393988 L112.962358,0.0039088826 L99.9063115,0.0039088826 L99.2335545,0.0039088826 L99.2335545,0.347890551 C99.484413,0.418250438 99.6592538,0.51206362 99.7580769,0.629330098 C99.8568999,0.746596576 99.9063115,0.914678528 99.9063115,1.13748484" id="Fill-13" fill="#274A97"></path>
                <path d="M55.8882406,8.67771937 L62.9236822,8.67771937 L62.9236822,5.84768837 L55.8882406,5.84768837 L55.8882406,2.83393988 L66.0138032,2.83393988 L66.0138032,0.0078177652 L52.9615577,0.0078177652 L52.2888007,0.0078177652 L52.2888007,0.355708316 C52.5434601,0.426068203 52.7183009,0.519881386 52.8133231,0.633238981 C52.9083453,0.750505459 52.9577568,0.918587411 52.9577568,1.14139372 L52.9577568,14.7443052 L66.4775114,14.7443052 L66.4775114,11.918183 L55.8844397,11.918183 L55.8844397,8.67771937 L55.8882406,8.67771937 Z" id="Fill-15" fill="#274A97"></path>
                <path d="M85.6947955,1.13748484 L85.6947955,14.7443052 L97.8842397,14.7443052 L97.8842397,11.9142742 L88.6214783,11.9142742 L88.6214783,0.0039088826 L85.6909946,0.0039088826 L85.0220385,0.0039088826 L85.0220385,0.347890551 C85.272897,0.418250438 85.4477378,0.51206362 85.5465609,0.629330098 C85.6491848,0.746596576 85.6947955,0.914678528 85.6947955,1.13748484" id="Fill-17" fill="#274A97"></path>
                <path d="M49.9854633,4.82747001 C49.9854633,3.38900121 49.5711666,2.22806308 48.7387724,1.33683785 C47.9063782,0.449521499 46.8079218,0.0039088826 45.4472043,0.0039088826 L35.5877038,0.0039088826 L34.9149468,0.0039088826 L34.9149468,0.351799434 C35.1658054,0.422159321 35.3406462,0.515972503 35.4394692,0.629330098 C35.5382923,0.746596576 35.5839029,0.914678528 35.5839029,1.13748484 L35.5839029,14.7403963 L38.5105858,14.7403963 L38.5105858,9.53376466 L44.0446771,9.53376466 L46.9979662,14.7403963 L50.3009369,14.7403963 L47.241223,9.26796064 C49.0732504,8.65817496 49.9854633,7.17670845 49.9854633,4.82747001 M46.5760677,6.17212562 C46.2339879,6.52392506 45.7512753,6.69982477 45.1279299,6.69982477 L38.5105858,6.69982477 L38.5105858,2.830031 L45.1127263,2.830031 C45.7208682,2.830031 46.2035808,3.00202184 46.5570633,3.34991239 C46.9143467,3.69780294 47.0929884,4.1551422 47.0929884,4.72193018 C47.0929884,5.33953363 46.9219485,5.82032619 46.5760677,6.17212562" id="Fill-19" fill="#274A97"></path>
                <path d="M44.7136332,25.5875455 C44.7136332,26.6468527 44.3221418,27.4794447 43.5239556,28.0579593 C42.7295702,28.6482006 41.5779015,28.9452756 40.0765512,28.9452756 C38.0772847,28.9452756 36.3554829,28.3393988 34.9149468,27.1198275 L35.9715934,25.5328211 C37.3057047,26.5413128 38.7006301,27.0377409 40.1677725,27.0377409 C40.9393525,27.0377409 41.562698,26.9204745 42.0226053,26.6663971 C42.4521055,26.4084108 42.6611543,26.0878825 42.6611543,25.6852676 C42.6611543,25.2982882 42.4254993,25.0403019 41.9465875,24.9191266 C41.6691228,24.8526756 41.0039676,24.7862246 39.947321,24.7315002 C38.3547494,24.6533226 37.1916781,24.3953363 36.4733104,23.9653592 C35.716934,23.5197466 35.3254426,22.8239655 35.3254426,21.8701981 C35.3254426,20.9047041 35.716934,20.1385631 36.4733104,19.5874107 C37.2448905,19.0362583 38.3433468,18.7548187 39.7648785,18.7548187 C41.6995299,18.7548187 43.2540926,19.2238846 44.4285667,20.177652 L43.1362651,22.0343712 L42.9652252,21.8858337 C42.9804288,21.8467448 42.9804288,21.8037471 42.9880305,21.776385 C43.0184376,21.6278474 42.8321942,21.4284944 42.5889374,21.2916835 C41.7109326,20.8617064 40.7949188,20.6467179 39.8446971,20.6467179 C38.1723069,20.6467179 37.3361118,20.9789729 37.3361118,21.6669362 C37.3361118,22.0031001 37.5565632,22.2298153 38.0278732,22.3627173 C38.3167406,22.4565305 38.7614443,22.5112549 39.3505818,22.5386171 C40.2361884,22.5933414 40.7987197,22.6324302 41.0343747,22.6597924 C42.3152736,22.80833 43.24269,23.0897695 43.8014203,23.5158377 C44.4095622,23.9575414 44.7136332,24.6572314 44.7136332,25.5875455" id="Fill-21" fill="#274A97"></path>
                <path d="M55.6829927,28.7146516 L46.7623112,28.7146516 L46.7623112,19.743766 C46.7623112,19.5952285 46.735705,19.4857798 46.6710899,19.4076021 C46.6064748,19.3255156 46.4886474,19.2707912 46.3176074,19.2160669 L46.3176074,18.9854428 L55.37132,18.9854428 L55.37132,20.8538887 L48.6969626,20.8538887 L48.6969626,22.8435099 L53.3340446,22.8435099 L53.3340446,24.7119558 L48.6969626,24.7119558 L48.6969626,26.8462057 L55.6867936,26.8462057 L55.6867936,28.7146516 L55.6829927,28.7146516 Z" id="Fill-23" fill="#274A97"></path>
                <path d="M67.2832994,23.7581884 C67.2832994,25.2474727 66.8157904,26.470953 65.8579669,27.3973581 C64.7899176,28.4566653 63.3911913,28.9960911 61.7035975,28.9960911 C60.0692162,28.9960911 58.7275031,28.4566653 57.6784583,27.3817226 C56.7662455,26.4514085 56.310139,25.270926 56.310139,23.8363661 C56.310139,22.4213506 56.7662455,21.2565036 57.6784583,20.3183717 C58.7503084,19.2395202 60.0996232,18.6922766 61.7035975,18.6922766 C63.7826826,18.6922766 65.3220418,19.4701442 66.3292768,21.0024262 L63.8092888,22.1047311 L63.7294702,21.940558 C63.7674791,21.8897426 63.8092888,21.8506537 63.8206915,21.807656 C63.8853066,21.7255695 63.9005101,21.5926675 63.8739039,21.5144898 C63.8206915,21.3229546 63.6002401,21.1470549 63.3493815,21.0024262 C62.8666689,20.7327133 62.3041376,20.5880846 61.6921948,20.5880846 C60.6583536,20.5880846 59.8221585,20.8968864 59.1722068,21.5183987 C58.5336579,22.1360022 58.2067816,22.9138698 58.2067816,23.840275 C58.2067816,24.8604933 58.5868703,25.6930853 59.369853,26.3106888 C60.0274064,26.834479 60.7951855,27.1041919 61.7073984,27.1041919 C62.494182,27.1041919 63.197346,26.9165656 63.8244924,26.5256773 C64.4364352,26.1621512 64.8811389,25.6774498 65.1434001,25.0598463 L61.3007035,25.0598463 L61.3007035,23.1914005 L67.2832994,23.1914005 L67.2832994,23.7581884 Z" id="Fill-25" fill="#274A97"></path>
                <path d="M78.6099423,25.439008 C78.6099423,26.4865885 78.1766412,27.334816 77.3290434,27.9915083 C76.4396359,28.6638361 75.2651619,29 73.8018204,29 C72.338479,29 71.160204,28.6638361 70.2745974,27.9915083 C69.4269996,27.334816 68.9936985,26.4865885 68.9936985,25.439008 L68.9936985,19.7281305 C68.9936985,19.5795929 68.9556897,19.4740531 68.8910746,19.3919666 C68.8378622,19.3255156 68.7200347,19.2590646 68.5489948,19.2160669 L68.5489948,18.9854428 L70.9245491,18.9854428 L70.9245491,25.1262973 C70.9245491,25.7282653 71.1716067,26.2129667 71.6809255,26.5764928 C72.1902444,26.9400189 72.8972093,27.1276452 73.7980195,27.1276452 C74.6988297,27.1276452 75.4019938,26.9400189 75.9265162,26.5647661 C76.4244324,26.2012401 76.67149,25.7204475 76.67149,25.1262973 L76.67149,18.9893517 L78.6061414,18.9893517 L78.6061414,25.439008 L78.6099423,25.439008 Z" id="Fill-27" fill="#274A97"></path>
                <path d="M88.6784916,28.7146516 L86.7362385,25.2748349 L83.0759844,25.2748349 L83.0759844,28.7146516 L81.1451339,28.7146516 L81.1451339,19.743766 C81.1451339,19.5952285 81.1185277,19.4740531 81.0539126,19.4076021 C80.9892975,19.3255156 80.87147,19.2707912 80.7004301,19.2160669 L80.7004301,18.9854428 L87.6522522,18.9854428 C88.5530624,18.9854428 89.2828327,19.2825179 89.8339613,19.8727591 C90.3850899,20.4473649 90.6549528,21.2135059 90.6549528,22.1672732 C90.6549528,23.7112818 90.0544127,24.6963203 88.8419298,25.0950263 L90.8640016,28.7107427 L88.6784916,28.7107427 L88.6784916,28.7146516 Z M88.7469076,22.1047311 C88.7469076,21.7294784 88.6290801,21.4324033 88.3934251,21.2056881 C88.161571,20.9633374 87.8308939,20.8538887 87.4394025,20.8538887 L83.0759844,20.8538887 L83.0759844,23.4102979 L87.4394025,23.4102979 C87.8575001,23.4102979 88.1729737,23.2891225 88.4086287,23.0584984 C88.6290801,22.8317833 88.7469076,22.5112549 88.7469076,22.1047311 L88.7469076,22.1047311 Z" id="Fill-29" fill="#274A97"></path>
                <path d="M102.909012,23.840275 C102.909012,25.2904704 102.449105,26.470953 101.536892,27.401267 C100.491648,28.4605742 99.1461341,28.9960911 97.5003501,28.9960911 C95.8659687,28.9960911 94.5204548,28.4605742 93.4790118,27.401267 C92.5744007,26.470953 92.1144934,25.2904704 92.1144934,23.840275 C92.1144934,22.4174417 92.5744007,21.2330503 93.4866135,20.3066451 C94.547061,19.2317024 95.8925749,18.6961855 97.5117527,18.6961855 C99.1309306,18.6961855 100.476445,19.2317024 101.536892,20.3066451 C102.449105,21.2330503 102.909012,22.4135328 102.909012,23.840275 M100.921148,23.840275 C100.921148,22.8708721 100.609476,22.0812778 99.989931,21.475401 C99.3627846,20.8734331 98.5379922,20.5607225 97.5079519,20.5607225 C96.4741106,20.5607225 95.6531191,20.8734331 95.0259727,21.475401 C94.4102291,22.0812778 94.0947554,22.874781 94.0947554,23.840275 C94.0947554,24.8331311 94.3988264,25.6266343 95.0107692,26.2325111 C95.6265129,26.8383879 96.462708,27.1315541 97.4927483,27.1315541 C98.5341913,27.1315541 99.3741873,26.8383879 99.9861301,26.2325111 C100.609476,25.6266343 100.921148,24.8331311 100.921148,23.840275" id="Fill-31" fill="#274A97"></path>
                <path d="M114,25.5875455 C114,26.6468527 113.608509,27.4794447 112.810322,28.0579593 C112.015937,28.6482006 110.868069,28.9452756 109.362918,28.9452756 C107.363652,28.9452756 105.64185,28.3393988 104.205115,27.1198275 L105.261761,25.5328211 C106.595872,26.5413128 107.994599,27.0377409 109.45794,27.0377409 C110.225719,27.0377409 110.852866,26.9204745 111.312773,26.6663971 C111.738472,26.4084108 111.951322,26.0878825 111.951322,25.6852676 C111.951322,25.2982882 111.711866,25.0403019 111.232954,24.9191266 C110.959291,24.8526756 110.294135,24.7862246 109.233688,24.7315002 C107.637315,24.6533226 106.478045,24.3953363 105.759677,23.9653592 C105.003301,23.5197466 104.611809,22.8239655 104.611809,21.8701981 C104.611809,20.9047041 105.003301,20.1385631 105.759677,19.5874107 C106.531257,19.0362583 107.629714,18.7548187 109.051245,18.7548187 C110.982096,18.7548187 112.540459,19.2238846 113.714933,20.177652 L112.422632,22.0343712 L112.251592,21.8858337 C112.266796,21.8467448 112.266796,21.8037471 112.278198,21.776385 C112.304804,21.6278474 112.122362,21.4284944 111.875304,21.2916835 C110.997299,20.8617064 110.081286,20.6467179 109.131064,20.6467179 C107.458674,20.6467179 106.622479,20.9789729 106.622479,21.6669362 C106.622479,22.0031001 106.846731,22.2298153 107.31424,22.3627173 C107.603107,22.4565305 108.047811,22.5112549 108.633148,22.5386171 C109.522555,22.5933414 110.081286,22.6324302 110.316941,22.6597924 C111.597839,22.80833 112.525256,23.0897695 113.083986,23.5158377 C113.695929,23.9575414 114,24.6572314 114,25.5875455" id="Fill-33" fill="#274A97"></path>
            </g>
        </g>
    </g>
</svg>