<?xml version="1.0" encoding="UTF-8"?>
<svg width="200px" height="100px" viewBox="0 0 200 100" version="1.1" xmlns="http://www.w3.org/2000/svg" xmlns:xlink="http://www.w3.org/1999/xlink">
    <title>Artboard 2</title>
    <defs>
        <linearGradient x1="0%" y1="49.999759%" x2="99.9999968%" y2="49.999759%" id="linearGradient-1">
            <stop stop-color="#AF4700" offset="0%"></stop>
            <stop stop-color="#D06301" offset="8.3%"></stop>
            <stop stop-color="#EA7902" offset="16.6%"></stop>
            <stop stop-color="#F98603" offset="24%"></stop>
            <stop stop-color="#FF8B04" offset="29.9%"></stop>
            <stop stop-color="#FF8506" offset="41.1%"></stop>
            <stop stop-color="#FF760F" offset="54.9%"></stop>
            <stop stop-color="#FF5D1D" offset="70.2%"></stop>
            <stop stop-color="#FF3A30" offset="86.3%"></stop>
            <stop stop-color="#FF1744" offset="99.9%"></stop>
        </linearGradient>
        <linearGradient x1="50.0002378%" y1="100%" x2="50.0002378%" y2="9.87463409e-07%" id="linearGradient-2">
            <stop stop-color="#00BFA5" offset="0.4%"></stop>
            <stop stop-color="#00BEA5" offset="0.5%"></stop>
            <stop stop-color="#11BBC8" offset="20.5%"></stop>
            <stop stop-color="#1EB8E1" offset="39.3%"></stop>
            <stop stop-color="#26B6F0" offset="56.3%"></stop>
            <stop stop-color="#29B6F6" offset="70.1%"></stop>
            <stop stop-color="#25B0F3" offset="77.2%"></stop>
            <stop stop-color="#1AA1EA" offset="86.1%"></stop>
            <stop stop-color="#0887DD" offset="96%"></stop>
            <stop stop-color="#007BD7" offset="100%"></stop>
        </linearGradient>
        <linearGradient x1="0%" y1="49.9997596%" x2="100%" y2="49.9997596%" id="linearGradient-3">
            <stop stop-color="#8BC34A" offset="0.2%"></stop>
            <stop stop-color="#7DC252" offset="4.2%"></stop>
            <stop stop-color="#51C16F" offset="19.4%"></stop>
            <stop stop-color="#2DC087" offset="34%"></stop>
            <stop stop-color="#14BF97" offset="47.7%"></stop>
            <stop stop-color="#05BFA1" offset="60.1%"></stop>
            <stop stop-color="#00BFA5" offset="70.1%"></stop>
            <stop stop-color="#00B99F" offset="78.6%"></stop>
            <stop stop-color="#00AA90" offset="89.2%"></stop>
            <stop stop-color="#02937B" offset="100%"></stop>
        </linearGradient>
        <linearGradient x1="50%" y1="100%" x2="50%" y2="0%" id="linearGradient-4">
            <stop stop-color="#5F9618" offset="0%"></stop>
            <stop stop-color="#639A1D" offset="7.8%"></stop>
            <stop stop-color="#71A82C" offset="17.6%"></stop>
            <stop stop-color="#87BF45" offset="28.2%"></stop>
            <stop stop-color="#8BC34A" offset="29.8%"></stop>
            <stop stop-color="#90C046" offset="40.9%"></stop>
            <stop stop-color="#9FBA3C" offset="54.6%"></stop>
            <stop stop-color="#B8AF2C" offset="69.8%"></stop>
            <stop stop-color="#DBA016" offset="85.9%"></stop>
            <stop stop-color="#FF9100" offset="99.4%"></stop>
        </linearGradient>
    </defs>
    <g id="Artboard" stroke="none" stroke-width="1" fill="none" fill-rule="evenodd">
        <rect id="Rectangle" fill="#FFFFFF" x="0" y="0" width="200" height="100"></rect>
        <rect id="Rectangle-Copy" fill="#FFFFFF" x="0" y="0" width="200" height="100"></rect>
        <g id="Group">
            <rect id="Rectangle-Copy-2" fill="#FFFFFF" x="0" y="0" width="200" height="100"></rect>
            <g id="upayments-logo" transform="translate(35.000000, 32.000000)" fill-rule="nonzero">
                <g id="logo-upayments">
                    <path d="M49.7623369,13.5663666 C50.1133447,13.564358 50.4610598,13.634435 50.7835473,13.7723336 C51.4161475,14.0400529 51.9192641,14.5419742 52.1864635,15.1719328 C52.4624791,15.824184 52.4624791,16.5595204 52.1864635,17.2118239 C51.9192641,17.8417302 51.4161475,18.3436514 50.7835473,18.6113708 C50.4610598,18.7493218 50.1133447,18.8193988 49.7623369,18.8173422 L47.1224221,18.8173422 L47.1224221,13.567243 L49.7623369,13.5663666 Z M47.1224221,21.4333338 L49.7623369,21.4333338 C50.4657866,21.4373726 51.1625975,21.2972711 51.809219,21.0217887 C53.0754285,20.4884482 54.0835736,19.4862842 54.6199905,18.2272586 C55.0793972,17.142796 55.1585319,15.9361183 54.8451795,14.8014059 C54.4734054,13.4818497 53.603454,12.3562641 52.4163791,11.6600051 C52.0229891,11.4296322 51.6010785,11.2512401 51.1613229,11.1292872 C50.7060589,11.0033479 50.2354991,10.9402996 49.7629211,10.9417189 L44.4830382,10.9417189 L44.4830382,24.059333 L47.1229531,24.059333 L47.1229531,21.4343303 L47.1224221,21.4333338 Z M65.8523487,14.2795526 L65.2452948,14.2795526 L64.2701844,15.4414356 C64.0343733,15.220137 63.7836913,15.0153611 63.5197317,14.828629 C63.2541788,14.6402708 62.9721616,14.4749918 62.6779289,14.3346281 C62.3863518,14.1951559 62.080966,14.0846378 61.7676134,14.0046997 C61.4574476,13.9259154 61.1393153,13.8859464 60.8195895,13.885789 C60.1493339,13.8814355 59.4843893,14.0105744 58.8651198,14.2654952 C58.2649702,14.5113417 57.7205867,14.873581 57.2638357,15.3311272 C56.7975247,15.8020489 56.4305305,16.3600947 56.182504,16.973111 C55.9132334,17.6402063 55.7788636,18.3536699 55.7868302,19.0725361 C55.7740836,19.8199891 55.9084535,20.562669 56.182504,21.2587707 C56.4257506,21.8685875 56.7938069,22.4215454 57.2638357,22.8823961 C57.7216489,23.3254128 58.2665635,23.6695559 58.8651198,23.8932149 C59.4897003,24.1274692 60.1519894,24.2453307 60.8195895,24.2407674 C61.1377219,24.240895 61.4547921,24.2008508 61.7628335,24.1218567 C62.0740615,24.0419711 62.3778541,23.9332364 62.6689001,23.7971212 C62.9631328,23.6601144 63.2446189,23.4979302 63.510703,23.3122471 C63.7751937,23.1278753 64.0290622,22.9278203 64.2696532,22.7131307 L65.2447636,24.0578643 L65.8518177,24.0578643 L65.8518177,14.2795526 L65.8523487,14.2795526 Z M63.124589,20.0658881 C62.9971236,20.3788743 62.8149542,20.6668404 62.5860476,20.9165158 C62.3608587,21.1624673 62.0910569,21.3641485 61.790451,21.5110689 C61.4893139,21.6601398 61.1568417,21.7369308 60.8201205,21.7352524 C60.4887105,21.7374029 60.1594248,21.6784459 59.849259,21.5614237 C59.5518398,21.4493844 59.282038,21.274664 59.0584424,21.0491691 C58.8252869,20.8096695 58.645242,20.5246406 58.5294609,20.2121791 C58.2718746,19.4745348 58.2718746,18.6721111 58.5294609,17.9344667 C58.645242,17.6220576 58.825818,17.3370289 59.0584424,17.0974767 C59.282038,16.8720869 59.5518398,16.6973665 59.849259,16.5852222 C60.1594248,16.4682524 60.4887105,16.4093479 60.8201205,16.4112455 C61.1568417,16.4098199 61.4893139,16.4866109 61.790451,16.6355769 C62.0910569,16.7826023 62.3608587,16.9842835 62.5860476,17.2301824 C62.8149542,17.4798055 62.9971236,17.7678241 63.124589,18.0807578 C63.3880175,18.7164863 63.3880175,19.4301597 63.124589,20.0658881 Z M71.426836,27.8091868 C72.0976228,27.8136977 72.7615051,27.6797857 73.3770568,27.4158954 C73.9718954,27.1617614 74.5136234,26.7986828 74.9735611,26.3454902 C75.4319054,25.8915109 75.7988996,25.3543413 76.0543615,24.7630403 C76.3199145,24.1505484 76.4574709,23.4907966 76.4590642,22.8238587 L76.4590642,14.2617711 L73.9294069,14.2617711 L73.9294069,19.6770028 C73.9294069,19.9385851 73.879483,20.197807 73.7822906,20.440821 C73.6866915,20.6834679 73.5496663,20.9078612 73.3775879,21.1041397 C73.2081652,21.2974285 73.0036894,21.4572523 72.7747827,21.5751663 C72.5495939,21.6929753 72.2983808,21.7541878 72.04345,21.753506 C71.7911747,21.7554467 71.5399615,21.7121206 71.3030883,21.625521 C71.0757751,21.5418587 70.869706,21.4090481 70.7002832,21.2366356 C70.5207694,21.0503755 70.3810886,20.8293393 70.2908006,20.5872694 C70.1840483,20.295789 70.1330621,19.9871564 70.1394354,19.6770028 L70.1394354,14.2617711 L67.6368645,14.2617711 L67.6368645,19.6770028 C67.6273046,20.3260018 67.744679,20.9706473 67.9820833,21.5751663 C68.4021881,22.6487711 69.2540819,23.4992415 70.3322268,23.9214869 C70.8766103,24.1369108 71.4576402,24.2456455 72.04345,24.2416591 C72.3387448,24.2401904 72.6313842,24.1811285 72.9038415,24.0677779 C73.1890454,23.951962 73.4694693,23.8361462 73.7456443,23.7202253 C73.6542941,23.944094 73.5337331,24.1548496 73.3866167,24.3467746 C73.2416249,24.5367063 73.0695465,24.7046603 72.876224,24.8453913 C72.6834325,24.9854929 72.4709902,25.0966404 72.2458013,25.1753197 C72.018488,25.2546285 71.7789593,25.2948598 71.537306,25.2942303 L70.1394354,25.2758718 L70.1394354,27.7914054 L71.4273671,27.8097639 L71.426836,27.8091868 Z M90.9019575,17.8383732 C90.9051441,17.3358225 90.8047651,16.83794 90.6077248,16.3752535 C90.2285152,15.4757921 89.51046,14.7599157 88.6065178,14.3814159 C88.1428624,14.1848752 87.6436229,14.0852148 87.1396034,14.0884115 C86.9080413,14.0890439 86.6770102,14.1089759 86.4491657,14.1481582 C86.2170725,14.1875503 85.9902903,14.253536 85.773068,14.3448039 C85.5521279,14.4380651 85.3439345,14.5579199 85.1522052,14.7015357 C84.9519783,14.8518656 84.77512,15.0306773 84.6280038,15.2323061 C84.3311155,14.8378607 83.932255,14.5311164 83.4739107,14.3449613 C83.044777,14.1760107 82.5874949,14.0890963 82.1259639,14.0887816 C81.6777106,14.087785 81.2331749,14.1699785 80.8151946,14.3311662 C80.3950898,14.4930356 80.004727,14.7233561 79.6611016,15.012686 L78.9802238,14.2626103 L78.3726387,14.2626103 L78.3726387,24.0597526 L80.8842384,24.0597526 L80.8842384,17.8383732 C80.8831762,17.6719928 80.9161047,17.5071859 80.9808997,17.3536564 C81.043039,17.203956 81.1338581,17.0673688 81.2475148,16.9511857 C81.4780147,16.7149906 81.795085,16.582757 82.1259639,16.5852222 C82.4605607,16.5838585 82.7818797,16.7154627 83.0187529,16.9507662 C83.2556261,17.1860696 83.3878715,17.5056123 83.3862781,17.8383732 L83.3862781,24.058756 L85.8978779,24.058756 L85.8978779,17.8383732 C85.8968157,17.6719928 85.9297442,17.5071859 85.9945391,17.3536564 C86.0572097,17.203956 86.1474976,17.0673688 86.2611543,16.9511857 C86.4916542,16.7149906 86.8087245,16.582757 87.1396034,16.5852222 C87.4742001,16.5838585 87.7960502,16.7154627 88.0323924,16.9507662 C88.2692656,17.1860696 88.401511,17.5056123 88.3999176,17.8383732 L88.3999176,24.058756 L90.9024886,24.058756 L90.9024886,17.8383732 L90.9019575,17.8383732 Z M101.361557,16.0180496 C101.128932,15.6893277 100.857537,15.3898219 100.552151,15.1261415 C99.9477528,14.6002493 99.2254488,14.2255262 98.4457853,14.0331291 C98.0517048,13.935357 97.6470021,13.8861562 97.240706,13.8866808 C96.5709816,13.8822747 95.9065681,14.0097352 95.2862364,14.2617711 C94.0588508,14.7544606 93.0895826,15.7268839 92.6046829,16.9511857 C92.3338189,17.6262014 92.1994491,18.3475329 92.209009,19.0741097 C92.2005113,19.7869964 92.3348811,20.4943754 92.6046829,21.155019 C92.8537715,21.7645735 93.2207657,22.3193672 93.6854833,22.7879809 C94.6266029,23.7270967 95.9076303,24.2511006 97.240706,24.242341 C97.6454087,24.2430753 98.0485181,24.1955006 98.4415364,24.1006134 C98.8281815,24.0071949 99.20208,23.8675129 99.5547344,23.6846623 C99.9079198,23.5012347 100.238268,23.2771561 100.538874,23.0169376 C100.842666,22.7547258 101.112999,22.4567937 101.34403,22.1295929 L99.5037482,20.2909633 C99.407087,20.5083803 99.2785594,20.7102713 99.1224142,20.8900797 C98.9678624,21.0681047 98.7883485,21.2222635 98.5886528,21.3475209 C98.3894881,21.4722538 98.1743902,21.5691867 97.9492013,21.6355919 C97.7192325,21.7030987 97.4802348,21.7369308 97.240706,21.7359867 C97.1424515,21.7359867 97.0441969,21.7312135 96.9464734,21.7216146 C96.8460944,21.7121731 96.7478398,21.6922935 96.6517096,21.662238 L101.362088,16.018207 L101.361557,16.0180496 Z M95.0143103,20.3722652 C94.9622619,20.2800531 94.9224289,20.181704 94.8948114,20.0795258 C94.8640072,19.969742 94.8379831,19.8553948 94.8167388,19.7365367 C94.7954946,19.6199865 94.7800926,19.5024396 94.7705326,19.3843683 C94.7615038,19.2686048 94.7561927,19.1647482 94.7561927,19.0733754 C94.7503507,18.6971312 94.8162078,18.3231948 94.9495153,17.9710264 C95.068483,17.6601384 95.248528,17.3756866 95.4784968,17.1340363 C95.7015612,16.9027717 95.971363,16.7204981 96.2693134,16.59886 C96.5773548,16.4731306 96.9071715,16.4094528 97.240175,16.4113935 C97.3586116,16.4111837 97.4765171,16.4173207 97.5944226,16.429752 C97.7123281,16.4430751 97.8281092,16.4707178 97.9391103,16.512103 L95.0137791,20.3722652 L95.0143103,20.3722652 Z M105.134002,18.4604639 C105.132408,18.210631 105.182863,17.9631584 105.281118,17.7332053 C105.580131,17.0330646 106.273224,16.5803966 107.038016,16.5856944 C107.287636,16.5841732 107.535131,16.6340034 107.764569,16.7319853 C108.217071,16.9239627 108.57663,17.2831073 108.767297,17.7336248 C108.866083,17.9635781 108.916007,18.2110506 108.914944,18.4608835 L108.914944,24.0591757 L111.426668,24.0591757 L111.426668,18.4608835 C111.429731,17.8747754 111.312356,17.2941749 111.081325,16.7549596 C110.859323,16.2331064 110.539066,15.7581459 110.138081,15.3553604 C109.737627,14.9545682 109.262819,14.6346058 108.74021,14.4130975 C108.2022,14.1836163 107.622764,14.0668563 107.038016,14.0699303 C105.93544,14.0681152 104.872697,14.4759361 104.05745,15.2135279 L103.229456,14.2621906 L102.622402,14.2621906 L102.622402,24.059333 L105.134002,24.059333 L105.134002,18.4610409 L105.134002,18.4604639 Z M120.055421,24.058756 L120.055421,21.5706028 L118.150876,21.5706028 C117.894883,21.572124 117.641014,21.5207202 117.405734,21.4196961 C117.179483,21.3234975 116.973414,21.1853367 116.79868,21.0126095 C116.626071,20.8406691 116.488514,20.637257 116.393978,20.4134406 C116.295192,20.1804976 116.244737,19.9298779 116.246861,19.6770028 L116.246861,16.7681253 L120.055421,16.7681253 L120.055421,14.2795526 L116.246861,14.2795526 L116.246861,10.3649968 L113.744821,10.3649968 L113.744821,14.2795526 L112.521153,14.2795526 L112.521153,16.7675484 L113.744821,16.7675484 L113.744821,19.6764257 C113.741103,20.26117 113.858478,20.8404068 114.09004,21.3779436 C114.540418,22.4296232 115.382752,23.2671901 116.440184,23.7150325 C116.98085,23.9452481 117.563472,24.0620606 118.151407,24.0581791 L120.055421,24.058756 Z M128.086274,23.816319 C128.458578,23.6603766 128.79583,23.4334657 129.079973,23.1484369 C129.363583,22.8631983 129.590896,22.5282869 129.751822,22.1605925 C129.918588,21.7783161 130.003565,21.3654597 129.999847,20.9486171 C130.004096,20.5420026 129.91965,20.1393221 129.751822,19.7685329 C129.593021,19.4185151 129.364645,19.1041652 129.079973,18.8446285 C128.789988,18.5838854 128.452736,18.3805783 128.086274,18.2454597 C127.698566,18.1007423 127.286959,18.0278329 126.872165,18.0302982 L124.259655,18.0302982 C124.092357,18.0322389 123.931963,17.9641551 123.817775,17.8426743 C123.697214,17.7228721 123.630826,17.5594815 123.634013,17.3899538 C123.635606,17.0470171 123.914968,16.7694366 124.259655,16.767863 L129.347118,16.767863 L129.347118,14.2792999 L124.259655,14.2792999 C123.83955,14.2765103 123.423164,14.3589662 123.035987,14.5218322 C122.286597,14.834661 121.690165,15.427588 121.376282,16.1729954 C121.050713,16.9518677 121.050713,17.8273581 121.376282,18.6062304 C121.691759,19.3542079 122.287128,19.9511213 123.036518,20.2709787 C123.422633,20.4369395 123.83955,20.5210739 124.260186,20.5180317 L126.872165,20.5180317 C127.02353,20.5141502 127.174364,20.5422124 127.314045,20.6003301 C127.443104,20.6660012 127.516397,20.8051585 127.497808,20.94804 C127.496215,21.2909768 127.217383,21.5686621 126.872165,21.5700259 L121.131442,21.5700259 L121.131442,24.058328 L126.872165,24.058328 C127.289614,24.0605919 127.702814,23.978136 128.086274,23.8157419 L128.086274,23.816319 Z" id="Shape" fill="#2D3344"></path>
                    <path d="M35.1984596,5.43359016 L35.1984596,10.8844373 C35.1993075,9.44329541 34.6240668,8.06095314 33.5994041,7.04179437 C32.5747416,6.02268805 31.1846782,5.45032262 29.7353965,5.4507947 L5.48122509,5.4507947 L5.48122509,5.43359016 C5.48122509,2.4327367 7.92781742,0 10.9457203,0 L29.7353965,0 C32.7528215,0.000712881365 35.1984596,2.433235 35.1984596,5.43359016 Z" id="Path" fill="url(#linearGradient-1)"></path>
                    <path d="M35.1984068,10.8844373 L35.1984068,29.5677734 C35.1984068,32.5679187 32.7525558,34.9999473 29.7353434,34.9999473 L24.2535341,34.9999473 C25.7024972,34.9999473 27.0920826,34.4277917 28.1166389,33.4090526 C29.1411953,32.3903134 29.7167547,31.008548 29.7165953,29.5677734 L29.7165953,5.45079411 L29.7353434,5.45079411 C31.1846782,5.45032262 32.5747416,6.02268805 33.5994041,7.04184683 C34.6240668,8.06095314 35.1993075,9.44329541 35.1984068,10.8844373 Z" id="Path" fill="url(#linearGradient-2)"></path>
                    <path d="M29.7166484,29.5491526 L29.7166484,29.5678258 C29.7166484,31.008548 29.1411953,32.3903134 28.1166389,33.4090526 C27.0921357,34.4278442 25.7024972,35 24.2535872,35 L5.46449525,35 C4.01538349,35.0003144 2.62550596,34.4281063 1.60068938,33.4093672 C0.57586748,32.390628 0,31.0087579 0,29.5678258 L0,24.0623752 C0,25.5034647 0.57567097,26.8855447 1.60047163,27.9045461 C2.62527228,28.9235475 4.01521354,29.4960179 5.46449525,29.4959654 L5.48180931,29.4959654 L5.48180931,29.5490477 L29.7166484,29.5491526 Z" id="Path" fill="url(#linearGradient-3)"></path>
                    <path d="M10.9463046,0 C7.92840164,0 5.48191553,2.4327367 5.48180931,5.43359016 L5.48180931,29.4960703 L5.46449525,29.4960703 C4.01521354,29.4960703 2.62527228,28.9236524 1.60047163,27.904651 C0.57567097,26.8856496 0,25.5035696 0,24.0624801 L0,5.43359016 C0,2.4327367 2.4465764,0 5.46449525,0 L10.9463046,0 Z" id="Path" fill="url(#linearGradient-4)"></path>
                    <path d="M21.1658439,21.904675 C20.919039,22.1274422 20.6586377,22.3349457 20.3861273,22.5259265 C20.1118642,22.7189006 19.8214025,22.8881659 19.5179816,23.0318342 C19.2177475,23.1740339 18.9048731,23.2881713 18.5833415,23.3727777 C18.2639876,23.4568596 17.9349675,23.4993152 17.6045665,23.499189 C16.900267,23.5039623 16.2017034,23.3732497 15.5472748,23.1142901 C14.2511109,22.6066514 13.2268732,21.5841882 12.7214197,20.2933761 C12.4358441,19.5665895 12.2949948,18.7915463 12.3066792,18.0113626 L12.3066792,11.5006533 L15.3150222,11.5006533 L15.3150222,18.0113626 C15.3090738,18.3733397 15.3709476,18.7333236 15.4975101,19.0727984 C15.6069179,19.3651181 15.7742695,19.6325227 15.9897391,19.8591714 C16.1936306,20.0701368 16.4406479,20.2351535 16.7142206,20.3429965 C16.9975656,20.4543015 17.299871,20.510321 17.6045665,20.5079607 C17.9108553,20.5088 18.2126828,20.4351561 18.4838123,20.2935335 C18.7589251,20.1516485 19.0046678,19.9595138 19.2082938,19.7272001 C19.4154251,19.4912148 19.5800148,19.2214498 19.6948399,18.9298119 C19.8119487,18.6377546 19.8720168,18.3261847 19.8718575,18.0117823 L19.8718575,11.5010729 L22.8909289,11.5010729 L22.8909289,23.2796739 L22.1609769,23.2796739 L21.1658439,21.904675 Z" id="Path" fill="#2D3344"></path>
                    <polygon id="Path" fill="#90A4AE" points="79.5134542 33.7754356 78.6796179 33.7754356 78.6796179 29.8058568 79.5134542 29.8058568"></polygon>
                    <path d="M80.9957706,33.7754356 L80.2022984,33.7754356 L80.2022984,30.810696 L80.3940277,30.810696 L80.6558629,31.0986096 C80.9134492,30.8755277 81.2491081,30.7521586 81.5975136,30.7525944 C81.7823385,30.7516865 81.9655699,30.7869873 82.1355239,30.8563824 C82.3006978,30.923522 82.4504696,31.0202975 82.5768728,31.1415685 C82.7038071,31.2634165 82.8047173,31.4071897 82.8753543,31.5650728 C82.9481159,31.728306 82.9852932,31.904023 82.9842744,32.0813661 L82.9842744,33.7754356 L82.1907588,33.7754356 L82.1907588,32.0813661 C82.1907588,32.0057816 82.1753568,31.9308789 82.1440215,31.8612739 C82.1142796,31.7935574 82.0707289,31.7319777 82.016025,31.679892 C81.9618523,31.6283309 81.8975884,31.5869981 81.8274824,31.558149 C81.7547209,31.5285656 81.6766483,31.5134591 81.5980447,31.5138263 C81.3558605,31.5114135 81.1365137,31.648735 81.043039,31.8612739 C81.0117038,31.9308265 80.9957706,32.0057816 80.9963017,32.0813661 L80.9957706,33.7754356 Z" id="Path" fill="#90A4AE"></path>
                    <path d="M86.2685898,31.4004232 L85.6875599,31.9567906 C85.6594113,31.8815733 85.6195784,31.8110766 85.5680611,31.747871 C85.5197305,31.6880747 85.4623711,31.6353595 85.3981072,31.5914565 C85.3354368,31.549232 85.266393,31.5165014 85.1931003,31.4945237 C85.1198078,31.472441 85.0433285,31.4612686 84.9663182,31.4613734 C84.8606281,31.460849 84.7560002,31.4826169 84.6598701,31.5250512 C84.564271,31.5671709 84.4792941,31.6280162 84.4097192,31.7035483 C84.3369577,31.7838011 84.2801294,31.8762755 84.2429519,31.9763031 C84.2009946,32.0881849 84.1802814,32.2063087 84.1818748,32.3251145 C84.1808126,32.4249847 84.2015256,32.5239633 84.2429519,32.6158606 C84.2822538,32.704506 84.3390822,32.7852308 84.4097192,32.8537868 C84.5573666,32.9946751 84.7575936,33.0732494 84.9663182,33.0719905 C85.0422663,33.0722528 85.1176834,33.0620245 85.1904448,33.0415679 C85.2616131,33.0214784 85.3295946,32.9921049 85.3922651,32.9542863 C85.4554666,32.9164154 85.512295,32.8697323 85.5611568,32.8159158 C85.6105496,32.7615222 85.6509136,32.7004146 85.6817178,32.6346387 L86.2627476,33.1910585 C86.1899862,33.290037 86.1044781,33.3802035 86.0083478,33.4595122 C85.9138111,33.5382963 85.8091832,33.6061179 85.6976509,33.661613 C85.5861187,33.7170031 85.4682133,33.7592802 85.3460589,33.7874998 C85.2217801,33.816244 85.0943146,33.8306685 84.9663182,33.8304587 C84.7544069,33.8318225 84.544089,33.7917485 84.348642,33.7127545 C83.9678391,33.5603265 83.6640466,33.2730422 83.5015282,32.9114848 C83.4176134,32.7263788 83.3751249,32.5266908 83.3761872,32.3251145 C83.3745939,32.1071729 83.4170823,31.8910147 83.5015282,31.6884419 C83.5806629,31.4975135 83.696444,31.3224784 83.8430293,31.1722534 C83.9864279,31.0262247 84.157975,30.9082058 84.348642,30.8248058 C84.5424957,30.7397273 84.7533447,30.6962438 84.9663182,30.6973539 C85.0953769,30.6973539 85.2239045,30.7131337 85.3487144,30.7445005 C85.6004586,30.8076537 85.8314897,30.9304983 86.0200322,31.1016519 C86.1172246,31.1897202 86.2006083,31.2902723 86.2685898,31.4004232 Z" id="Path" fill="#90A4AE"></path>
                    <polygon id="Path" fill="#90A4AE" points="87.4545491 33.7755405 86.6552349 33.7755405 86.6552349 29.6316085 87.4545491 29.6316085"></polygon>
                    <path d="M90.3469518,33.4295091 C90.2821569,33.4855288 90.2136443,33.5377718 90.141945,33.5859235 C90.0697145,33.6345473 89.9932353,33.6770865 89.9135694,33.7131741 C89.8349657,33.7489994 89.7526443,33.7777435 89.6681985,33.7990394 C89.5837526,33.8202304 89.4971824,33.8309307 89.4106121,33.8309307 C89.2252562,33.8319798 89.0414935,33.7991443 88.8694153,33.7339979 C88.5289763,33.6061703 88.2597057,33.3487842 88.1269292,33.0239437 C88.0520433,32.8410406 88.0148659,32.6459686 88.0180525,32.4495851 L88.0180525,30.8107484 L88.8088692,30.8107484 L88.8088692,32.4495851 C88.8072758,32.5406432 88.823209,32.6311768 88.8566687,32.71657 C88.8853484,32.7901613 88.9288991,32.8574584 88.9857274,32.9145796 C89.038838,32.9677143 89.104164,33.009257 89.1758633,33.0363751 C89.2502181,33.0643849 89.3298841,33.0784947 89.40955,33.0779702 C89.490278,33.0780226 89.5699439,33.0592969 89.6411121,33.0234192 C89.7133425,32.9876988 89.7781374,32.9393373 89.8312479,32.8807999 C89.8859519,32.8214233 89.9289715,32.7535493 89.9592445,32.6801678 C89.9900487,32.6064191 90.0059818,32.5277398 90.0059818,32.4483787 L90.0059818,30.8094896 L90.799454,30.8094896 L90.799454,33.7742292 L90.6071937,33.7742292 L90.3469518,33.4295091 Z" id="Path" fill="#90A4AE"></path>
                    <path d="M94.4136295,33.7754356 L94.2213692,33.7754356 L93.9133277,33.3685589 C93.8373796,33.4334956 93.7571826,33.4940261 93.673799,33.5498884 C93.5893532,33.6060654 93.5006585,33.6551613 93.407715,33.6966515 C93.3158336,33.7378269 93.2197035,33.7707149 93.1214489,33.7948432 C93.0237254,33.8187617 92.9238775,33.8308604 92.8229674,33.8308604 C92.4012693,33.8327666 91.9960356,33.6725757 91.6996784,33.3865503 C91.5530932,33.2440359 91.4373121,33.0757146 91.3581774,32.8909758 C91.1914102,32.4904983 91.1914102,32.0445442 91.3581774,31.6440668 C91.4373121,31.4584886 91.5530932,31.2892232 91.6996784,31.1456598 C91.8441393,31.0054534 92.0156864,30.8935714 92.2052913,30.8163085 C92.4007383,30.7365276 92.6110561,30.6959816 92.8229674,30.6972929 C92.8957289,30.6975027 92.9679593,30.7030627 93.0396586,30.7139204 C93.1140135,30.7250929 93.187306,30.7433465 93.2579431,30.7684714 C93.3280491,30.7931767 93.3949685,30.8261695 93.4571078,30.8666107 C93.5187161,30.906947 93.5723578,30.9578262 93.6143151,31.0166258 L93.6143151,29.6325526 L94.4136295,29.6325526 L94.4136295,33.7754356 Z M93.6143151,32.2668394 C93.6143151,32.1638744 93.5925398,32.0619586 93.5516447,31.9668091 C93.5112806,31.8721842 93.4539211,31.78506 93.3816907,31.7095279 C93.3099914,31.6350974 93.2250145,31.5740947 93.1299466,31.5295097 C93.0348786,31.4843479 92.9297197,31.4610063 92.8234985,31.4613211 C92.7183395,31.4606391 92.6142428,31.4794698 92.5170504,31.5167113 C92.4225136,31.5524841 92.3375367,31.6067204 92.2668995,31.6758532 C92.1936069,31.7485003 92.1367786,31.8346804 92.0996012,31.929043 C92.0571127,32.0370435 92.0363996,32.1516005 92.038524,32.2668394 C92.0379929,32.4763885 92.1192521,32.6786466 92.2668995,32.8342743 C92.3370055,32.9077607 92.4219825,32.9670848 92.5170504,33.0086799 C92.6126495,33.0511667 92.7172774,33.0728823 92.8234985,33.072376 C92.9297197,33.0727249 93.0348786,33.0493834 93.1299466,33.004169 C93.2250145,32.9596366 93.3105226,32.8985814 93.3816907,32.8241508 C93.4539211,32.7485663 93.5112806,32.6614422 93.5516447,32.5667123 C93.5925398,32.4716153 93.6143151,32.3697518 93.6143151,32.2668394 Z" id="Shape" fill="#90A4AE"></path>
                    <path d="M95.9538366,30.0052301 C95.9543676,30.0728942 95.9394967,30.1398765 95.9108169,30.2017709 C95.8837306,30.2613573 95.8449598,30.3154362 95.7966292,30.3610177 C95.7472364,30.4066517 95.6893458,30.4432113 95.6261443,30.4689132 C95.4933678,30.5224151 95.3435959,30.5224151 95.2108194,30.4689132 C95.0844162,30.4179291 94.9835061,30.3222026 94.9293333,30.2017709 C94.8730361,30.0766709 94.8730361,29.9352056 94.9293333,29.8101055 C94.9824439,29.6889394 95.0838851,29.5925836 95.2108194,29.5415994 C95.3435959,29.4882548 95.4933678,29.4882548 95.6261443,29.5415994 C95.6893458,29.5673013 95.7472364,29.6038609 95.7966292,29.6494949 C95.8449598,29.6954435 95.8842617,29.7499945 95.9108169,29.8101055 C95.9394967,29.8716327 95.9538366,29.9380904 95.9538366,30.0052301 Z M95.8173423,33.7754881 L95.0180279,33.7754881 L95.0180279,30.8107484 L95.8173423,30.8107484 L95.8173423,33.7754881 Z" id="Shape" fill="#90A4AE"></path>
                    <path d="M97.215213,33.7754356 L96.4217408,33.7754356 L96.4217408,30.8107484 L96.6140011,30.8107484 L96.8753052,31.0986096 C97.1328916,30.8755277 97.4690815,30.7521586 97.8169559,30.7525944 C98.0017808,30.7516865 98.1850124,30.7869873 98.3549662,30.8563824 C98.5201401,30.9234696 98.6699119,31.0202975 98.7968462,31.1415685 C98.9232495,31.2634165 99.0246907,31.4071897 99.0947967,31.5650728 C99.1675582,31.728306 99.2047356,31.904023 99.2037168,32.0813661 L99.2037168,33.7754356 L98.4102012,33.7754356 L98.4102012,32.0813661 C98.4102012,32.0057816 98.3947991,31.9308789 98.3639951,31.8612739 C98.333722,31.7935574 98.2901712,31.7319777 98.2354674,31.679892 C98.1812946,31.6283309 98.1175619,31.5869981 98.0469248,31.558149 C97.9746944,31.5285656 97.8966218,31.5134591 97.8174871,31.5138263 C97.5758339,31.5114135 97.3564871,31.648735 97.2624814,31.8612739 C97.2316773,31.9308265 97.215744,32.0057816 97.2162752,32.0813661 L97.215213,33.7754356 Z" id="Path" fill="#90A4AE"></path>
                    <path d="M102.782265,33.401814 C102.783858,33.6033903 102.740838,33.8030783 102.657455,33.9881843 C102.576727,34.1671534 102.460946,34.3297048 102.315954,34.4671313 C102.1699,34.6044528 101.998353,34.7143416 101.80981,34.7909752 C101.614894,34.8708084 101.404576,34.9113544 101.192134,34.9101033 L100.794335,34.904588 L100.794335,34.1488475 L101.186292,34.1543025 C101.294106,34.1568202 101.40139,34.1413466 101.503362,34.1086162 C101.662162,34.0562682 101.793346,33.9463795 101.868232,33.8027635 C101.904347,33.7337356 101.933027,33.6614031 101.95374,33.5868677 C101.920811,33.6365929 101.875136,33.677139 101.820432,33.7045719 C101.758824,33.736201 101.694029,33.7612209 101.62711,33.7793171 C101.554879,33.7989345 101.481055,33.81231 101.406169,33.8193911 C101.335001,33.8264723 101.263833,33.8301439 101.192665,33.8304062 C100.981285,33.83177 100.771498,33.7951579 100.574989,33.7224058 C100.18675,33.5813077 99.87924,33.2908763 99.7273438,32.9225 C99.6413047,32.7136851 99.5988161,32.490813 99.6025339,32.2664722 C99.6004095,32.0530416 99.6428979,31.8413419 99.7273438,31.6436471 C99.8064786,31.458069 99.9222597,31.2888036 100.068845,31.1452402 C100.213306,31.0050337 100.385384,30.8931518 100.574989,30.8159413 C100.769905,30.736108 100.980223,30.6956145 101.192665,30.6968176 C101.293575,30.6969258 101.393954,30.7089899 101.491678,30.7329084 C101.590994,30.7569318 101.687124,30.7903443 101.779537,30.8325688 C101.87248,30.8751605 101.961706,30.9253579 102.045621,30.9825839 C102.129005,31.0390756 102.208139,31.1010224 102.282494,31.1680048 L102.590536,30.8164657 L102.782265,30.8164657 L102.782265,33.401814 Z M101.98295,32.2668394 C101.98295,32.1639269 101.961706,32.0620111 101.92028,31.9668616 C101.880447,31.8721842 101.822556,31.78506 101.750326,31.7095279 C101.679158,31.6350974 101.59365,31.5740422 101.499113,31.5295097 C101.403514,31.4844003 101.298886,31.4610588 101.192134,31.4612944 C101.087506,31.4607441 100.983409,31.4785255 100.885686,31.5138263 C100.79168,31.5478682 100.706172,31.6007407 100.635535,31.668877 C100.562242,31.7414193 100.505414,31.8277041 100.468237,31.9222766 C100.426279,32.0325849 100.405566,32.1493974 100.40769,32.2668394 C100.405566,32.3807145 100.426279,32.4938553 100.468237,32.600387 C100.505945,32.6944874 100.562773,32.7805101 100.635535,32.8536294 C100.706172,32.9237064 100.791149,32.9788867 100.885686,33.0156562 C100.982878,33.0537369 101.086975,33.0730395 101.192134,33.0723577 C101.298886,33.0727249 101.404045,33.0493834 101.499113,33.004169 C101.594181,32.9597415 101.679158,32.8986863 101.750326,32.8242033 C101.822556,32.7486713 101.880447,32.6614946 101.92028,32.5667123 C101.961706,32.4716153 101.982419,32.3696993 101.982419,32.2668394 L101.98295,32.2668394 Z" id="Shape" fill="#90A4AE"></path>
                    <polygon id="Path" fill="#90A4AE" points="107.993476 33.7754356 105.136657 33.7754356 105.136657 29.8058568 107.993476 29.8058568 107.993476 30.600465 105.970493 30.600465 105.970493 31.3948109 107.339684 31.3948109 107.339684 32.1892617 105.970493 32.1892617 105.970493 32.9809848 107.993476 32.9809848"></polygon>
                    <polygon id="Path" fill="#90A4AE" points="109.293092 33.7755405 108.107132 30.8108009 109.011075 30.8108009 109.691421 32.659921 110.368581 30.8108009 111.27571 30.8108009 110.089751 33.7755405"></polygon>
                    <path d="M112.725629,33.0502751 C112.755902,33.0593494 112.787237,33.0653814 112.818572,33.0683188 C112.849908,33.0710464 112.880712,33.0724102 112.912047,33.0724102 C112.987464,33.0726724 113.062881,33.0623917 113.135642,33.0419875 C113.206811,33.0218981 113.274792,32.9925245 113.337463,32.954706 C113.400665,32.916835 113.457493,32.8702045 113.506355,32.8162829 C113.555747,32.7619417 113.596642,32.7008342 113.626916,32.6350583 L114.208476,33.1914256 C114.135184,33.2904566 114.050207,33.380623 113.954077,33.4599317 C113.859009,33.5386635 113.754381,33.6065374 113.642848,33.6620326 C113.531316,33.7174228 113.413412,33.7596997 113.291257,33.7879194 C113.166978,33.8166635 113.039513,33.8310881 112.912047,33.8308782 C112.490349,33.8336058 112.085647,33.6749885 111.788228,33.3906416 C111.641642,33.248914 111.52533,33.0810124 111.446726,32.8965883 C111.361749,32.6966905 111.31926,32.4826303 111.321917,32.2668918 C111.318729,32.0471144 111.361218,31.8289105 111.446726,31.6247117 C111.600216,31.2541847 111.906664,30.9599243 112.29437,30.8107484 C112.490349,30.7345345 112.700136,30.6959291 112.912047,30.6972929 C113.040044,30.6971355 113.16804,30.7120322 113.29285,30.7416155 C113.539284,30.7998906 113.767127,30.9132937 113.958325,31.0724356 C114.054987,31.1522165 114.140495,31.2428025 114.214318,31.3423055 L112.725629,33.0502751 Z M113.132987,31.4917961 C113.097935,31.4792599 113.061288,31.4709199 113.023579,31.4668286 C112.986402,31.4631044 112.949225,31.4612686 112.912047,31.4613734 C112.806888,31.4606916 112.70226,31.4799942 112.605068,31.518075 C112.511062,31.5548444 112.425554,31.6100249 112.355448,31.6799445 C112.282687,31.7531162 112.225858,31.8391913 112.188149,31.9333442 C112.146193,32.0398759 112.12548,32.1530166 112.127073,32.2668918 C112.127073,32.2941673 112.128666,32.3259012 112.131322,32.3609922 C112.134508,32.3960307 112.139288,32.4315938 112.145662,32.4676289 C112.152566,32.5036115 112.160001,32.5381255 112.170624,32.5713806 C112.179121,32.6022753 112.191868,32.632016 112.208331,32.6598685 L113.132987,31.4917961 Z" id="Shape" fill="#90A4AE"></path>
                    <path d="M115.405589,33.7755405 L114.612117,33.7755405 L114.612117,30.8108009 L114.804377,30.8108009 L115.065682,31.1623398 C115.323799,30.9398348 115.659458,30.8165182 116.007332,30.8163609 L116.707861,30.8163609 L116.707861,31.569269 L116.007332,31.569269 C115.847469,31.5684822 115.69398,31.628226 115.580323,31.7353347 C115.52562,31.7877351 115.482069,31.8497868 115.452326,31.9180805 C115.420992,31.9890491 115.405589,32.0653155 115.405589,32.1422639 L115.405589,33.7755405 Z" id="Path" fill="#90A4AE"></path>
                    <path d="M117.804064,34.9050077 L117.804064,34.1436547 L118.245943,34.149267 C118.321892,34.149372 118.39784,34.137203 118.469539,34.113232 C118.540707,34.0894708 118.607627,34.055901 118.668703,34.0135716 C118.729781,33.9709799 118.783954,33.9201006 118.83016,33.8626123 C118.876366,33.804547 118.914606,33.7407643 118.943286,33.6730477 C118.856184,33.7080337 118.767489,33.7431247 118.677202,33.7782156 C118.591162,33.8125198 118.498749,33.8304062 118.405275,33.8308259 C118.22045,33.8320323 118.036688,33.7991443 117.864609,33.7339979 C117.52417,33.6062228 117.254899,33.3488366 117.122123,33.0239437 C117.047238,32.8410406 117.01006,32.6459686 117.013247,32.4495851 L117.013247,30.8107484 L117.803533,30.8107484 L117.803533,32.4495851 C117.801407,32.5434757 117.817872,32.6368418 117.851863,32.7250675 C117.880011,32.7982391 117.924093,32.8651165 117.980391,32.9215558 C118.034032,32.9736939 118.098828,33.0138728 118.171058,33.0392075 C118.245943,33.0653814 118.325078,33.0785471 118.404744,33.0779702 C118.485472,33.0780226 118.564607,33.0592969 118.635775,33.0234192 C118.708536,32.9876988 118.7728,32.9393373 118.826442,32.8807475 C118.880615,32.8214233 118.924166,32.7536018 118.954439,32.6801678 C118.985242,32.6064191 119.001176,32.5277398 119.000645,32.4483787 L119.000645,30.8094896 L119.799959,30.8094896 L119.799959,33.4004502 C119.799428,33.6021315 119.755877,33.8016621 119.671963,33.9868206 C119.591766,34.1657897 119.475454,34.328341 119.330462,34.4657675 C119.18547,34.6028793 119.014454,34.712768 118.826442,34.7896114 C118.632058,34.8694446 118.422271,34.9099907 118.210891,34.9087395 L117.804064,34.9050077 Z" id="Path" fill="#90A4AE"></path>
                    <path d="M123.414134,32.2668918 C123.415728,32.4789586 123.373239,32.6892946 123.288793,32.8855731 C123.21019,33.0700498 123.094409,33.2383185 122.948886,33.3811476 C122.804956,33.5208819 122.633409,33.6327114 122.444335,33.7104465 C122.049193,33.8710048 121.602001,33.8710048 121.206328,33.7104465 C120.820744,33.5525635 120.516421,33.2561 120.359214,32.8855731 C120.274768,32.6892946 120.23228,32.4789586 120.233873,32.2668918 C120.231749,32.0525171 120.274237,31.8398732 120.359214,31.6412343 C120.437817,31.4560233 120.553599,31.2872301 120.700715,31.1444534 C120.845176,31.0048764 121.016723,30.8934665 121.206328,30.8163609 C121.401244,30.7365276 121.611562,30.696034 121.824004,30.6972929 C122.036446,30.6958242 122.247295,30.733905 122.444335,30.8093846 C122.633409,30.8818745 122.804956,30.9901896 122.948886,31.1278259 C123.095471,31.2699731 123.211253,31.4383467 123.288793,31.623243 C123.374833,31.8278615 123.417321,32.0465899 123.414134,32.2668918 Z M122.61482,32.2668918 C122.616413,32.1538035 122.59517,32.0415019 122.552149,31.9360718 C122.51338,31.8414993 122.455489,31.7550569 122.382196,31.6814656 C122.311028,31.6107592 122.22552,31.5550018 122.130451,31.5178128 C121.933943,31.4421757 121.714065,31.4421757 121.517024,31.5178128 C121.422488,31.5548444 121.337511,31.6106019 121.267405,31.6814656 C121.194643,31.7552143 121.137816,31.8416566 121.100107,31.9360718 C121.058149,32.0417117 121.037436,32.1539609 121.03903,32.2668918 C121.037967,32.375679 121.05868,32.4837319 121.100107,32.5851756 C121.138347,32.679381 121.195174,32.7658233 121.267405,32.8398867 C121.338042,32.911852 121.423019,32.9697075 121.517024,33.0100962 C121.613686,33.0517437 121.718314,33.0729872 121.824004,33.0724387 C121.929163,33.0730395 122.033791,33.0532649 122.130451,33.0142924 C122.224989,32.9764215 122.310497,32.920769 122.382196,32.8506395 C122.45602,32.7773629 122.513911,32.6908157 122.552149,32.5960859 C122.594638,32.4911277 122.615882,32.3794032 122.614289,32.2668918 L122.61482,32.2668918 Z" id="Shape" fill="#90A4AE"></path>
                    <path d="M124.646301,33.7754356 L123.852828,33.7754356 L123.852828,30.8107484 L124.044557,30.8107484 L124.306393,31.0986096 C124.563979,30.8754752 124.899638,30.7521061 125.248043,30.7525944 C125.432868,30.7516865 125.6161,30.7869873 125.786054,30.8563824 C125.951227,30.9234171 126.101,31.020245 126.227403,31.1415685 C126.354337,31.263364 126.455247,31.4071372 126.525353,31.5650728 C126.598645,31.7282536 126.635823,31.9039706 126.634804,32.0813661 L126.634804,33.7754356 L125.840757,33.7754356 L125.840757,32.0813661 C125.841288,32.0057816 125.825356,31.9308789 125.794551,31.8612739 C125.76481,31.7935574 125.721259,31.7319777 125.666555,31.679892 C125.612382,31.6282785 125.548118,31.5869981 125.477481,31.558149 C125.405251,31.5285656 125.327178,31.5134591 125.248574,31.5138263 C125.00639,31.5113086 124.787043,31.6486826 124.693038,31.8612739 C124.662233,31.9308789 124.646301,32.0057816 124.646832,32.0813661 L124.646301,33.7754356 Z" id="Path" fill="#90A4AE"></path>
                    <path d="M128.436803,33.0502751 C128.467076,33.0594018 128.498411,33.0654339 128.529747,33.0683188 C128.560551,33.0710464 128.591886,33.0724102 128.62269,33.0724102 C128.698639,33.07262 128.774055,33.0623917 128.846817,33.0419875 C128.917985,33.0218981 128.985966,32.9925245 129.048637,32.954706 C129.111838,32.916835 129.168667,32.8702045 129.216997,32.8162829 C129.266922,32.7619417 129.307285,32.7008342 129.337559,32.6350583 L129.919119,33.1914256 C129.846358,33.2904566 129.76085,33.380623 129.664719,33.4599317 C129.569652,33.5386635 129.465555,33.6065374 129.354023,33.6620326 C129.24249,33.7174228 129.124054,33.7596997 129.0019,33.7879194 C128.877621,33.8166635 128.750687,33.8310881 128.62269,33.8308782 C128.201523,33.8335533 127.796821,33.674936 127.499401,33.3906416 C127.352285,33.2489664 127.236503,33.0810648 127.1579,32.8965883 C127.072392,32.6966905 127.029904,32.4826303 127.03309,32.2668918 C127.029904,32.0471144 127.072392,31.8289105 127.1579,31.6247117 C127.310859,31.2542372 127.617306,30.9599243 128.005014,30.8107484 C128.200992,30.734482 128.410779,30.6959291 128.62269,30.6972929 C128.751218,30.6971355 128.879214,30.7120322 129.003493,30.7416155 C129.249926,30.7998906 129.478302,30.9132937 129.668969,31.0724356 C129.76563,31.1522165 129.851669,31.2428025 129.924962,31.3423055 L128.436803,33.0502751 Z M128.843631,31.4917961 C128.808577,31.4792599 128.771931,31.4709199 128.734753,31.4668286 C128.697576,31.4631044 128.659868,31.4612686 128.62269,31.4613734 C128.517531,31.4606916 128.413434,31.4799942 128.316241,31.518075 C128.221705,31.5548444 128.136728,31.6099724 128.066091,31.6799445 C127.993329,31.7531162 127.936502,31.8391913 127.898793,31.9333442 C127.856836,32.0398759 127.836123,32.1530166 127.837716,32.2668918 C127.837716,32.2941673 127.839309,32.3259012 127.842495,32.3609922 C127.845151,32.3967126 127.849931,32.4323281 127.856836,32.4676289 C127.863209,32.5034018 127.871706,32.5380206 127.881266,32.5713806 C127.889764,32.6022753 127.902511,32.632016 127.918975,32.6598685 L128.843631,31.4917961 Z" id="Shape" fill="#90A4AE"></path>
                </g>
            </g>
        </g>
    </g>
</svg>