<?xml version="1.0" encoding="UTF-8"?>
<svg width="215px" height="27px" viewBox="0 0 215 27" version="1.1" xmlns="http://www.w3.org/2000/svg" xmlns:xlink="http://www.w3.org/1999/xlink">
    <title>Group 130 Copy 2</title>
    <defs>
        <polygon id="path-1" points="0 0 18.7160221 0 18.7160221 27 0 27"></polygon>
    </defs>
    <g id="Landing-Talentos" stroke="none" stroke-width="1" fill="none" fill-rule="evenodd">
        <g id="mobile-banner-sale-pre-registro" transform="translate(-75.000000, -12.000000)">
            <g id="Group-145" transform="translate(-1.000000, 0.000000)">
                <g id="Group-130-Copy-2" transform="translate(76.000000, 12.000000)">
                    <g id="FEBRERO-2023" transform="translate(129.165778, 10.806208)" fill="#2B3243" fill-rule="nonzero">
                        <path d="M0,6.87667808 L0,0 L1.75903576,0 L1.75903576,6.87667808 L0,6.87667808 Z M1.34448593,4.17860467 L1.34448593,2.86365915 L5.29951537,2.86365915 L5.29951537,4.17860467 L1.34448593,4.17860467 Z M1.34448593,1.31494553 L1.34448593,0 L5.47878016,0 L5.47878016,1.31494553 L1.34448593,1.31494553 Z" id="Shape"></path>
                        <path d="M7.30504021,6.87667808 L7.30504021,0 L9.00162499,0 L9.00162499,6.87667808 L7.30504021,6.87667808 Z M8.60179291,6.87667808 L8.60179291,5.55199222 L12.7838204,5.55199222 L12.7838204,6.87667808 L8.60179291,6.87667808 Z M8.60179291,4.0032786 L8.60179291,2.72729442 L12.4056008,2.72729442 L12.4056008,4.0032786 L8.60179291,4.0032786 Z M8.60179291,1.31494553 L8.60179291,0 L12.729789,0 L12.729789,1.31494553 L8.60179291,1.31494553 Z" id="Shape"></path>
                        <path d="M16.7407172,6.87667808 L16.7407172,5.68835694 L18.4249348,5.68835694 C18.7360754,5.68835694 18.9795767,5.60069391 19.1554388,5.42536784 C19.3313009,5.25004177 19.4192319,5.03575435 19.4192319,4.78250558 C19.4192319,4.60717951 19.3786483,4.45133411 19.2974812,4.31496939 C19.2163141,4.17860467 19.1030183,4.07146096 18.9575939,3.99353826 C18.8121695,3.91561557 18.6346165,3.87665422 18.4249348,3.87665422 L16.7407172,3.87665422 L16.7407172,2.71755409 L18.2930382,2.71755409 C18.5568313,2.71755409 18.769895,2.65424189 18.9322292,2.52761751 C19.0945634,2.40099313 19.1757306,2.20780977 19.1757306,1.94806745 C19.1757306,1.69481868 19.0945634,1.5048821 18.9322292,1.37825772 C18.769895,1.25163333 18.5568313,1.18832114 18.2930382,1.18832114 L16.7407172,1.18832114 L16.7407172,0 L18.5974149,0 C19.0573618,0 19.4479786,0.0811694769 19.7692651,0.243508431 C20.0905516,0.405847385 20.3357439,0.623381583 20.504842,0.896111025 C20.6739402,1.16884047 20.7584893,1.47079092 20.7584893,1.80196239 C20.7584893,2.22404367 20.6164468,2.58118937 20.3323619,2.87339948 C20.048277,3.1656096 19.6289136,3.3669099 19.0742717,3.47730039 L19.1148552,2.96106252 C19.7168446,3.07145301 20.1818646,3.29548076 20.509915,3.63314579 C20.8379654,3.97081081 21.0019906,4.38639853 21.0019906,4.87990895 C21.0019906,5.25653532 20.9056047,5.59582374 20.7128328,5.89777419 C20.5200609,6.19972465 20.2427399,6.43836291 19.8808699,6.61368898 C19.5189998,6.78901505 19.0844176,6.87667808 18.5771231,6.87667808 L16.7407172,6.87667808 Z M15.5232104,6.87667808 L15.5232104,0 L17.0958233,0 L17.0958233,6.87667808 L15.5232104,6.87667808 Z" id="Shape"></path>
                        <path d="M24.8948081,4.04223995 L24.8948081,2.91236083 L26.3269804,2.91236083 C26.6281532,2.91236083 26.8604406,2.83443813 27.0238428,2.67859274 C27.187245,2.52274734 27.2689462,2.3117067 27.2689462,2.04547082 C27.2689462,1.79871561 27.188847,1.59416853 27.0286488,1.43182957 C26.8684505,1.26949062 26.6377651,1.18832114 26.3365923,1.18832114 L24.8948081,1.18832114 L24.8948081,0 L26.5096065,0 C26.9581616,0 27.3522492,0.0860396455 27.6918695,0.258118937 C28.0314898,0.430198228 28.2974189,0.66883649 28.4896568,0.974033723 C28.6818947,1.27923096 28.7780137,1.6298831 28.7780137,2.02599014 C28.7780137,2.42859075 28.6818947,2.78086628 28.4896568,3.08281673 C28.2974189,3.38476719 28.0282859,3.62015867 27.6822576,3.78899118 C27.3362294,3.95782369 26.9293259,4.04223995 26.461547,4.04223995 L24.8948081,4.04223995 Z M23.7413807,6.87667808 L23.7413807,0 L25.2504482,0 L25.2504482,6.87667808 L23.7413807,6.87667808 Z M27.4323484,6.87667808 L25.3177315,3.91561557 L26.7018444,3.53574241 L29.2201608,6.87667808 L27.4323484,6.87667808 Z" id="Shape"></path>
                        <path d="M30.1332909,6.87667808 L30.1332909,0 L31.8298757,0 L31.8298757,6.87667808 L30.1332909,6.87667808 Z M31.4300436,6.87667808 L31.4300436,5.55199222 L35.612071,5.55199222 L35.612071,6.87667808 L31.4300436,6.87667808 Z M31.4300436,4.0032786 L31.4300436,2.72729442 L35.2338515,2.72729442 L35.2338515,4.0032786 L31.4300436,4.0032786 Z M31.4300436,1.31494553 L31.4300436,0 L35.5580397,0 L35.5580397,1.31494553 L31.4300436,1.31494553 Z" id="Shape"></path>
                        <path d="M39.5048885,4.04223995 L39.5048885,2.91236083 L40.9370609,2.91236083 C41.2382336,2.91236083 41.470521,2.83443813 41.6339233,2.67859274 C41.7973255,2.52274734 41.8790266,2.3117067 41.8790266,2.04547082 C41.8790266,1.79871561 41.7989275,1.59416853 41.6387292,1.43182957 C41.478531,1.26949062 41.2478455,1.18832114 40.9466728,1.18832114 L39.5048885,1.18832114 L39.5048885,0 L41.1196869,0 C41.568242,0 41.9623297,0.0860396455 42.30195,0.258118937 C42.6415702,0.430198228 42.9074993,0.66883649 43.0997372,0.974033723 C43.2919751,1.27923096 43.3880941,1.6298831 43.3880941,2.02599014 C43.3880941,2.42859075 43.2919751,2.78086628 43.0997372,3.08281673 C42.9074993,3.38476719 42.6383663,3.62015867 42.2923381,3.78899118 C41.9463098,3.95782369 41.5394063,4.04223995 41.0716274,4.04223995 L39.5048885,4.04223995 Z M38.3514611,6.87667808 L38.3514611,0 L39.8605286,0 L39.8605286,6.87667808 L38.3514611,6.87667808 Z M42.0424288,6.87667808 L39.9278119,3.91561557 L41.3119248,3.53574241 L43.8302413,6.87667808 L42.0424288,6.87667808 Z" id="Shape"></path>
                        <path d="M49.3287116,6.87667808 C48.8036413,6.87667808 48.3195921,6.78875709 47.8765641,6.61291509 C47.433536,6.43707309 47.0446559,6.19215031 46.7099236,5.87814675 C46.3751913,5.56414318 46.1159378,5.19832903 45.9321632,4.78070428 C45.7483886,4.36307954 45.6565013,3.91248443 45.6565013,3.42891893 C45.6565013,2.93907337 45.7483886,2.48690824 45.9321632,2.07242353 C46.1159378,1.65793883 46.3719096,1.29526471 46.7000785,0.984401178 C47.0282474,0.673537648 47.4138459,0.431754903 47.8568739,0.259052942 C48.299902,0.0863509805 48.7839511,0 49.3090214,0 C49.8275283,0 50.3082958,0.0863509805 50.7513238,0.259052942 C51.1943519,0.431754903 51.5815912,0.673537648 51.9130418,0.984401178 C52.2444924,1.29526471 52.502105,1.65950884 52.6858796,2.07713359 C52.8696542,2.49475833 52.9615415,2.94849348 52.9615415,3.43833904 C52.9615415,3.92190453 52.8696542,4.37249965 52.6858796,4.79012439 C52.502105,5.20774913 52.2461333,5.57199327 51.9179644,5.8828568 C51.5897954,6.19372033 51.204197,6.43707309 50.7611689,6.61291509 C50.3181409,6.78875709 49.8406551,6.87667808 49.3287116,6.87667808 Z M49.3090214,5.52960279 C49.7225143,5.52960279 50.0851409,5.44168179 50.3969014,5.26583979 C50.7086619,5.0899978 50.949866,4.843505 51.1205139,4.5263614 C51.2911617,4.2092178 51.3764856,3.84340364 51.3764856,3.42891893 C51.3764856,3.11491537 51.3272603,2.83074214 51.2288096,2.57639925 C51.1303589,2.32205637 50.9892463,2.10225387 50.8054717,1.91699177 C50.6216971,1.73172966 50.4034648,1.59042806 50.1507747,1.49308695 C49.8980846,1.39574585 49.6175002,1.3470753 49.3090214,1.3470753 C48.8955286,1.3470753 48.5329019,1.43342628 48.2211414,1.60612824 C47.909381,1.7788302 47.6681768,2.02061294 47.497529,2.33147647 C47.3268811,2.64234 47.2415572,3.00815416 47.2415572,3.42891893 C47.2415572,3.7429225 47.2907826,4.02866574 47.3892332,4.28614867 C47.4876839,4.54363159 47.6271557,4.76500411 47.8076486,4.95026621 C47.9881415,5.13552831 48.2063738,5.27839994 48.4623456,5.37888108 C48.7183174,5.47936222 49.0005426,5.52960279 49.3090214,5.52960279 Z" id="Shape"></path>
                        <path d="M58.4510855,6.03267854 L61.3680785,3.34722545 C61.5474753,3.18737706 61.6909928,3.04031653 61.7986309,2.90604388 C61.9062691,2.77177122 61.9852037,2.64549099 62.0354348,2.52720317 C62.0856659,2.40891536 62.1107815,2.28902906 62.1107815,2.16754428 C62.1107815,1.9053929 62.0157011,1.69918847 61.8255405,1.54893098 C61.6353798,1.39867348 61.3860182,1.32354474 61.0774556,1.32354474 C60.7760688,1.32354474 60.5051796,1.39547651 60.2647878,1.53934007 C60.024396,1.68320363 59.792974,1.91818078 59.5705219,2.24427151 L58.4403217,1.37149926 C58.7417084,0.917529805 59.1256177,0.575454233 59.5920495,0.34527254 C60.0584814,0.115090847 60.593084,0 61.1958575,0 C61.7196963,0 62.1735704,0.0863181349 62.5574797,0.258954405 C62.941389,0.431590675 63.2391877,0.677757208 63.450876,0.997454004 C63.6625643,1.3171508 63.7684085,1.69119605 63.7684085,2.11958976 C63.7684085,2.38813507 63.7289412,2.63590008 63.6500066,2.86288481 C63.5710719,3.08986953 63.4437002,3.31365729 63.2678912,3.53424808 C63.0920823,3.75483887 62.8570724,3.99620995 62.5628616,4.25836132 L60.539265,6.05186035 L58.4510855,6.03267854 Z M58.4510855,6.87667808 L58.4510855,6.03267854 L59.8826725,5.59149696 L63.9191018,5.59149696 L63.9191018,6.87667808 L58.4510855,6.87667808 Z" id="Shape"></path>
                        <path d="M68.9519348,6.87667808 C68.35026,6.87667808 67.8052134,6.73183963 67.316795,6.44216271 C66.8283766,6.15248579 66.4443665,5.74788271 66.1647646,5.22835346 C65.8851628,4.70882421 65.7453619,4.10900407 65.7453619,3.42889306 C65.7453619,2.74248471 65.8833932,2.14266458 66.1594557,1.62943265 C66.4355183,1.11620072 66.8142195,0.716320634 67.2955594,0.42979238 C67.7768992,0.143264127 68.3219459,0 68.9306992,0 C69.5465311,0 70.0951169,0.143264127 70.5764568,0.42979238 C71.0577967,0.716320634 71.4382675,1.11777505 71.7178693,1.63415564 C71.9974712,2.15053623 72.1372721,2.7519307 72.1372721,3.43833904 C72.1372721,4.12474739 71.9974712,4.72614185 71.7178693,5.24252244 C71.4382675,5.75890303 71.0595663,6.16035745 70.5817657,6.4468857 C70.1039651,6.73341396 69.5606881,6.87667808 68.9519348,6.87667808 Z M68.941317,5.56368598 C69.2527722,5.56368598 69.5217562,5.48339509 69.7482691,5.32281332 C69.974782,5.16223156 70.1499755,4.92293323 70.2738498,4.60491836 C70.397724,4.28690348 70.4596611,3.89804371 70.4596611,3.43833904 C70.4596611,2.97233705 70.397724,2.58190294 70.2738498,2.26703673 C70.1499755,1.95217052 69.974782,1.71444653 69.7482691,1.55386476 C69.5217562,1.39328299 69.2492329,1.31299211 68.9306992,1.31299211 C68.6263225,1.31299211 68.3591081,1.39170866 68.129056,1.54914177 C67.8990038,1.70657487 67.7238103,1.94272453 67.6034753,2.25759074 C67.4831404,2.57245696 67.4229729,2.96289106 67.4229729,3.42889306 C67.4229729,3.89489505 67.4831404,4.28532915 67.6034753,4.60019537 C67.7238103,4.91506158 67.8990038,5.1543599 68.129056,5.31809033 C68.3591081,5.48182076 68.6298618,5.56368598 68.941317,5.56368598 Z" id="Shape"></path>
                        <path d="M73.0611659,6.03267854 L75.9781589,3.34722545 C76.1575558,3.18737706 76.3010732,3.04031653 76.4087114,2.90604388 C76.5163495,2.77177122 76.5952841,2.64549099 76.6455152,2.52720317 C76.6957463,2.40891536 76.7208619,2.28902906 76.7208619,2.16754428 C76.7208619,1.9053929 76.6257816,1.69918847 76.4356209,1.54893098 C76.2454602,1.39867348 75.9960986,1.32354474 75.687536,1.32354474 C75.3861493,1.32354474 75.11526,1.39547651 74.8748682,1.53934007 C74.6344764,1.68320363 74.4030544,1.91818078 74.1806023,2.24427151 L73.0504021,1.37149926 C73.3517888,0.917529805 73.7356981,0.575454233 74.20213,0.34527254 C74.6685618,0.115090847 75.2031645,0 75.8059379,0 C76.3297767,0 76.7836508,0.0863181349 77.1675601,0.258954405 C77.5514694,0.431590675 77.8492682,0.677757208 78.0609565,0.997454004 C78.2726448,1.3171508 78.3784889,1.69119605 78.3784889,2.11958976 C78.3784889,2.38813507 78.3390216,2.63590008 78.260087,2.86288481 C78.1811524,3.08986953 78.0537806,3.31365729 77.8779717,3.53424808 C77.7021627,3.75483887 77.4671528,3.99620995 77.172942,4.25836132 L75.1493454,6.05186035 L73.0611659,6.03267854 Z M73.0611659,6.87667808 L73.0611659,6.03267854 L74.4927529,5.59149696 L78.5291823,5.59149696 L78.5291823,6.87667808 L73.0611659,6.87667808 Z" id="Shape"></path>
                        <path d="M82.8915183,6.87667808 C82.3707488,6.87667808 81.8927823,6.7951554 81.4576188,6.63211003 C81.0224553,6.46906467 80.6550631,6.23408752 80.3554423,5.9271786 L81.4362173,4.95849731 C81.5717601,5.13752751 81.7697238,5.28298956 82.0301085,5.39488343 C82.2904933,5.50677731 82.5669291,5.56272425 82.8594161,5.56272425 C83.1233677,5.56272425 83.3516502,5.52116367 83.5442636,5.4380425 C83.736877,5.35492133 83.8884708,5.23663352 83.9990451,5.08317906 C84.1096195,4.9297246 84.1649067,4.74749742 84.1649067,4.53649754 C84.1649067,4.32549765 84.1096195,4.14486896 83.9990451,3.99461147 C83.8884708,3.84435397 83.7279597,3.72766464 83.5175117,3.64454348 C83.3070638,3.56142231 83.0555963,3.51986172 82.7631094,3.51986172 C82.6275666,3.51986172 82.4866735,3.52785414 82.3404301,3.54383898 C82.1941866,3.55982382 82.071128,3.58380108 81.9712544,3.61577076 L82.7096057,2.78136213 C82.9093529,2.73021064 83.1001828,2.68705157 83.2820954,2.65188492 C83.464008,2.61671828 83.6334364,2.59913495 83.7903807,2.59913495 C84.1756074,2.59913495 84.5215981,2.68065764 84.8283527,2.843703 C85.1351073,3.00674837 85.3794409,3.23693006 85.5613535,3.53424808 C85.7432662,3.8315661 85.8342225,4.18483106 85.8342225,4.59404296 C85.8342225,5.04161847 85.7111639,5.4380425 85.4650469,5.78331504 C85.2189298,6.12858758 84.876506,6.39713289 84.4377756,6.58895097 C83.9990451,6.78076904 83.483626,6.87667808 82.8915183,6.87667808 Z M81.9712544,3.61577076 L81.9712544,2.78136213 L83.8117821,0.843999542 L85.6951128,0.834408638 L83.7796799,2.79095303 L81.9712544,3.61577076 Z M80.826275,1.27559022 L80.826275,0 L85.6951128,0 L85.6951128,0.834408638 L84.3789215,1.27559022 L80.826275,1.27559022 Z" id="Shape"></path>
                    </g>
                    <g id="Group-127" transform="translate(0.000000, 3.929530)">
                        <path d="M22.1923911,12.4826859 L24.10956,7.24966622 L26.000199,12.4826859 L22.1923911,12.4826859 Z M22.671192,3.13032712 L16.8598879,17.8032764 L20.2430776,17.8032764 L21.2178045,15.1429812 L26.9611698,15.1429812 L27.9221405,17.8032764 L31.3672332,17.8032764 L25.6186743,3.13032712 L22.671192,3.13032712 Z" id="Fill-1" fill="#10172A"></path>
                        <polygon id="Fill-2" fill="#10172A" points="36.0140697 3.13032712 32.7395497 3.13032712 32.7395497 17.8032764 35.263077 17.8032764 36.0140697 17.8032764 42.5418101 17.8032764 42.5418101 14.9355102 36.0140697 14.9355102"></polygon>
                        <polygon id="Fill-3" fill="#10172A" points="47.780551 14.9765546 47.780551 11.6723403 54.3576057 11.6723403 54.3576057 8.94963507 47.780551 8.94963507 47.780551 5.93624561 54.9842003 5.93624561 54.9842003 3.13032712 47.780551 3.13032712 47.0077933 3.13032712 44.5022621 3.13032712 44.5022621 17.8032764 47.0077933 17.8032764 47.780551 17.8032764 55.0887033 17.8032764 55.0887033 14.9765546"></polygon>
                        <path d="M9.07934273,18.7915761 C8.88476703,18.7915761 8.68920933,18.7412063 8.51273043,18.6383678 C8.08724514,18.3898766 7.87401149,17.8937336 7.98736201,17.4150802 L9.04314913,12.9539909 L2.24450296,12.9539909 C1.79909715,12.9539909 1.39577693,12.6910883 1.2167729,12.2842119 C1.03790915,11.8773354 1.11717034,11.4032992 1.41906429,11.0764549 L10.2783611,1.48057963 C10.4966451,1.2442611 10.7982584,1.11945582 11.1043609,1.11945582 C11.2858901,1.11945582 11.469243,1.16338952 11.6374451,1.25405524 C12.0891637,1.49750949 12.3175482,2.01575923 12.1921331,2.51218204 L11.0695702,6.95704105 L19.5394351,6.95704105 C20.0018154,6.95704105 20.4169196,7.23995168 20.5849814,7.66963445 C20.7530431,8.09945713 20.639412,8.58790471 20.2992202,8.90019775 L9.83940845,18.496073 C9.62687623,18.6909763 9.35430191,18.7915761 9.07934273,18.7915761" id="Fill-17" fill="#4EDFA9"></path>
                        <g id="Group-21" fill="#4EDFA9">
                            <path d="M11.1047818,0 C11.0691493,0 11.0335169,0.000839497421 10.9980247,0.00251849226 C10.5674891,0.0225265141 10.168658,0.163422165 9.83477904,0.392045296 C9.70852227,0.47851353 9.58970063,0.578693555 9.48083924,0.692585372 C9.46961642,0.70419842 9.4583936,0.716231216 9.44745134,0.728124096 L0.593485339,10.3182628 C-0.0101622788,10.9719515 -0.168824946,11.919884 0.189042838,12.7337767 C0.546910621,13.5476695 1.35355106,14.0733348 2.24464324,14.0733348 L7.62514538,14.0733348 L6.89510072,17.1579281 C6.66853997,18.1150951 7.09486697,19.1076609 7.94583756,19.6043635 C8.29851479,19.8101803 8.68991076,19.91092 9.07906216,19.91092 C9.62884023,19.91092 10.1741292,19.7097204 10.5990533,19.3199138 L21.0588651,9.72403854 C21.7396696,9.09945246 21.9665109,8.12241738 21.6305276,7.26305185 C21.2945444,6.40354641 20.464336,5.83772515 19.5392948,5.83772515 L12.5095987,5.83772515 L13.2651753,2.84659584 C13.3197463,2.65337151 13.3489256,2.44951356 13.3489256,2.23879971 C13.3489256,1.05538817 12.4285138,0.0864682344 11.2626028,0.00559664947 C11.2099958,0.00195882732 11.1573888,0 11.1047818,0 L11.1047818,0 Z M11.1039401,2.23879971 L9.62940137,8.07638494 L19.5392948,8.07638494 L9.0796233,17.6722602 L10.4612932,11.834675 L2.24464324,11.834675 L11.1039401,2.23879971 L11.1039401,2.23879971 Z" id="Fill-19"></path>
                        </g>
                        <path d="M4.82232939,10.7153591 L10.4800353,10.7153591 C10.8228925,10.7153591 11.1470918,10.8717854 11.3600449,11.1400049 C11.5728577,11.4083642 11.6509966,11.7588544 11.5722966,12.091855 L11.0310759,14.3782262 L16.6802244,9.19572882 L9.64814348,9.19572882 C9.30219995,9.19572882 8.9754755,9.03650415 8.76294328,8.76436707 C8.55027078,8.49222998 8.47535843,8.13754232 8.55981018,7.8030026 L8.95485356,6.23929874 L4.82232939,10.7153591 Z M9.09808485,18.7916041 C8.90350915,18.7916041 8.70781116,18.7412342 8.53147255,18.6382559 C8.10598725,18.3899046 7.89275361,17.8936217 8.00596384,17.4151082 L9.06189124,12.9540189 L2.26324507,12.9540189 C1.81783926,12.9540189 1.41451905,12.6912562 1.23551501,12.2842398 C1.05651098,11.8773634 1.13591245,11.4033272 1.43766612,11.0764829 L10.296963,1.48060761 C10.6448705,1.10381318 11.2046088,1.01062897 11.6561872,1.25408322 C12.1079058,1.49753747 12.3364306,2.0156473 12.2108752,2.51221002 L11.088172,6.95706903 L19.5580369,6.95706903 C20.0204172,6.95706903 20.4355214,7.23997967 20.6035832,7.66966243 C20.771645,8.09934519 20.6581542,8.58793269 20.317822,8.90008582 L9.85801028,18.496101 C9.64561835,18.6910043 9.37290374,18.7916041 9.09808485,18.7916041 L9.09808485,18.7916041 Z" id="Fill-24" fill="#2B3243"></path>
                    </g>
                    <g id="Group-122" transform="translate(65.069427, 0.000000)">
                        <path d="M27.5060882,21.8513623 C28.5949826,21.8513623 29.5350344,21.5366907 30.3283477,20.9073475 C31.1198373,20.2771647 31.7327438,19.3394461 32.1660851,18.0925126 C32.5994263,16.8455791 32.8160268,15.3210518 32.8160268,13.5180912 C32.8160268,11.6914847 32.5994263,10.1606612 32.1660851,8.92548061 C31.7327438,7.69127949 31.1198373,6.7590176 30.3283477,6.12967437 C29.5350344,5.49949164 28.5831987,5.18482002 27.4689126,5.18482002 C26.4035861,5.18482002 25.4690054,5.4940349 24.6647499,6.11064576 C23.8606345,6.72823603 23.2477281,7.65420168 22.8271528,8.88840281 C22.4054552,10.1235833 22.1951675,11.6544069 22.1951675,13.4810134 C22.1951675,15.3084593 22.4054552,16.8392829 22.8271528,18.073484 C23.2477281,19.3086645 23.8606345,20.2463832 24.6647499,20.8883189 C25.4690054,21.531234 26.416352,21.8513623 27.5060882,21.8513623 M27.5432638,27 C25.4381427,27 23.532367,26.43208 21.8243935,25.2955404 C20.1162798,24.1606798 18.7727675,22.5738898 17.7953999,20.5365694 C16.8171905,18.499389 16.3285769,16.147537 16.3285769,13.4810134 C16.3285769,10.7900044 16.8108777,8.43815236 17.7764614,6.42531738 C18.7419048,4.41346181 20.0664785,2.84556046 21.7500423,1.72161333 C23.4336061,0.598505695 25.3392415,0.0370218363 27.4689126,0.0370218363 C29.6221515,0.0370218363 31.5404126,0.598505695 33.2249585,1.72161333 C34.9076805,2.84556046 36.2385671,4.41975804 37.2167765,6.44434598 C38.1940038,8.46893393 38.6835995,10.8270822 38.6835995,13.5180912 C38.6835995,16.2099396 38.1940038,18.5680879 37.2167765,20.5918364 C36.2385671,22.6172638 34.9139934,24.1914614 33.2430553,25.314569 C31.5722574,26.4385161 29.6719528,27 27.5432638,27" id="Fill-4" fill="#10172A"></path>
                        <g id="Group-8">
                            <mask id="mask-2" fill="white">
                                <use xlink:href="#path-1"></use>
                            </mask>
                            <g id="Clip-7"></g>
                            <path d="M12.6816502,20.2961094 C12.3470698,20.8395441 11.8946497,21.2654491 11.3262137,21.5738245 C10.755954,21.8830394 10.1005411,22.0366674 9.35801106,22.0366674 C8.61548101,22.0366674 7.95908612,21.8830394 7.3898084,21.5738245 C6.81954868,21.2654491 6.37442344,20.8395441 6.05260898,20.2961094 C5.73065423,19.7526747 5.57016786,19.1476769 5.57016786,18.4813958 C5.57016786,17.7904894 5.73065423,17.1791954 6.05260898,16.6475137 C6.37442344,16.1168114 6.81954868,15.6972026 7.3898084,15.3889671 C7.95908612,15.0796123 8.61548101,14.9259843 9.35801106,14.9259843 C10.1005411,14.9259843 10.755954,15.0796123 11.3262137,15.3889671 C11.8946497,15.6972026 12.3470698,16.1168114 12.6816502,16.6475137 C13.0152487,17.1791954 13.1830299,17.7904894 13.1830299,18.4813958 C13.1830299,19.1476769 13.0152487,19.7526747 12.6816502,20.2961094 M7.24110599,5.6296697 C7.81052399,5.08623504 8.51573816,4.81493746 9.35801106,4.81493746 C10.2238519,4.81493746 10.9365012,5.09253127 11.4931532,5.6477189 C12.0498053,6.20388594 12.328973,6.91368101 12.328973,7.77724402 C12.328973,8.61716119 12.0498053,9.3143638 11.4931532,9.87039093 C10.9365012,10.4255786 10.2238519,10.7031724 9.35801106,10.7031724 C8.51573816,10.7031724 7.81052399,10.4202617 7.24110599,9.85150223 C6.67182827,9.28358223 6.38704912,8.58008339 6.38704912,7.74016622 C6.38704912,6.87660321 6.67182827,6.17310437 7.24110599,5.6296697 M18.009826,15.962204 C17.5393091,14.9756546 16.8646771,14.1473505 15.9862106,13.4810693 C15.5768581,13.1704553 15.132294,12.9072728 14.6554643,12.6878842 C14.9799442,12.5072523 15.2819784,12.2972381 15.5591822,12.055043 C16.251911,11.4501852 16.7785419,10.7159047 17.1376723,9.85150223 C17.4956804,8.98793922 17.6760872,8.08645891 17.6760872,7.14790079 C17.6760872,5.76524854 17.32341,4.53650415 16.6172139,3.46222728 C15.9118594,2.38892983 14.93365,1.54341601 13.6844095,0.925965655 C12.433205,0.308375386 10.9917736,0 9.35801106,0 C7.74795675,0 6.31269792,0.308375386 5.04984971,0.925965655 C3.78784321,1.54341601 2.80332102,2.38892983 2.09796656,3.46222728 C1.39261211,4.53650415 1.03993488,5.76524854 1.03993488,7.14790079 C1.03993488,8.08645891 1.22581289,8.98793922 1.59658692,9.85150223 C1.96834295,10.7159047 2.50044507,11.4501852 3.19317385,12.055043 C3.4692553,12.2962586 3.77002697,12.5057132 4.093104,12.6859254 C3.620062,12.9057338 3.17676047,13.1694759 2.76614541,13.4810693 C1.88753862,14.1473505 1.20673409,14.9756546 0.724433255,15.962204 C0.241150419,16.9504323 0,18.061787 0,19.2959881 C0,20.7771414 0.38985283,22.0982305 1.16955849,23.2592555 C1.94926415,24.419301 3.03900031,25.3326742 4.43792526,25.9999347 C5.8358682,26.6663557 7.47594357,27.000056 9.35801106,27.000056 C11.2637868,27.000056 12.9164878,26.6663557 14.3154128,25.9999347 C15.7133557,25.3326742 16.796779,24.419301 17.5645604,23.2592555 C18.3316404,22.0982305 18.7160221,20.7771414 18.7160221,19.2959881 C18.7160221,18.061787 18.4803428,16.9504323 18.009826,15.962204" id="Fill-6" fill="#10172A" mask="url(#mask-2)"></path>
                        </g>
                        <path d="M50.0245432,15.0240096 C50.3312068,15.0240096 50.5800729,14.9276073 50.7735264,14.7346628 C50.9669798,14.5417184 51.0637766,14.2852519 51.0637766,13.9640042 C51.0637766,13.6746574 50.9669798,13.4299439 50.7735264,13.2287444 C50.5800729,13.0286642 50.3312068,12.9275047 50.0245432,12.9275047 C49.7355555,12.9275047 49.4937036,13.0286642 49.3002502,13.2287444 C49.1067968,13.4299439 49.0101402,13.6746574 49.0101402,13.9640042 C49.0101402,14.2852519 49.1067968,14.5417184 49.3002502,14.7346628 C49.4937036,14.9276073 49.7355555,15.0240096 50.0245432,15.0240096 L50.0245432,15.0240096 Z M50.0245432,17.5299094 C49.3639397,17.5299094 48.7647813,17.3687259 48.2256649,17.0474782 C47.6854262,16.7263705 47.2548906,16.2969675 46.9329359,15.7592695 C46.6108409,15.220452 46.4492322,14.6228698 46.4492322,13.9640042 C46.4492322,13.2887685 46.6108409,12.6910463 46.9329359,12.168739 C47.2548906,11.6464317 47.6819191,11.2251439 48.2127586,10.9040361 C48.7447205,10.5829284 49.3403718,10.4217448 50.0009753,10.4217448 C50.6934235,10.4217448 51.3091356,10.5829284 51.8493743,10.9040361 C52.3883504,11.2251439 52.8188859,11.6464317 53.140981,12.168739 C53.4629357,12.6910463 53.6245444,13.2887685 53.6245444,13.9640042 C53.6245444,14.6228698 53.4629357,15.2252092 53.140981,15.7710224 C52.8188859,16.3169756 52.3883504,16.7463785 51.8493743,17.0592312 C51.3091356,17.3733432 50.70156,17.5299094 50.0245432,17.5299094 L50.0245432,17.5299094 Z M42.2464251,4.61578069 C42.5519665,4.61578069 42.8020951,4.5193784 42.9955486,4.32643391 C43.189002,4.13348942 43.2856585,3.88401877 43.2856585,3.57942112 C43.2856585,3.27468356 43.189002,3.02521291 42.9955486,2.83226842 C42.8020951,2.63932392 42.5519665,2.54292164 42.2464251,2.54292164 C41.9563151,2.54292164 41.7144633,2.63932392 41.5210098,2.83226842 C41.328819,3.02521291 41.2320221,3.27468356 41.2320221,3.57942112 C41.2320221,3.88401877 41.328819,4.13348942 41.5210098,4.32643391 C41.7144633,4.5193784 41.9563151,4.61578069 42.2464251,4.61578069 L42.2464251,4.61578069 Z M39.3471489,17.2886938 L49.56567,0.278237429 L52.9486498,0.278237429 L42.7288662,17.2886938 L39.3471489,17.2886938 Z M42.2464251,7.12056116 C41.5859619,7.12056116 40.9855409,6.96399489 40.4464245,6.65114218 C39.9074484,6.33814956 39.4756503,5.91224454 39.1536955,5.37468635 C38.8316005,4.83586893 38.6712544,4.23003162 38.6712544,3.55465595 C38.6712544,2.89704963 38.8316005,2.30170605 39.1536955,1.77226301 C39.4756503,1.24170064 39.9026787,0.820552762 40.4346405,0.507700057 C40.9654801,0.193588105 41.5611314,0.0370218363 42.2217349,0.0370218363 C42.9141831,0.0370218363 43.5310175,0.193588105 44.0701339,0.507700057 C44.60911,0.820552762 45.0409081,1.24170064 45.3628629,1.77226301 C45.6849579,2.30170605 45.845304,2.89704963 45.845304,3.55465595 C45.845304,4.23003162 45.6849579,4.83586893 45.3628629,5.37468635 C45.0409081,5.91224454 44.60911,6.33814956 44.0701339,6.65114218 C43.5310175,6.96399489 42.9223196,7.12056116 42.2464251,7.12056116 L42.2464251,7.12056116 Z" id="Fill-9" fill="#10172A"></path>
                        <path d="M41.6539442,24.0747153 C41.9918915,24.0747153 42.2878934,24 42.542371,23.8504295 C42.797129,23.7008591 42.9942299,23.4909847 43.1335332,23.2208065 C43.2728365,22.951048 43.342418,22.6393146 43.342418,22.2865858 C43.342418,22.0194857 43.3022964,21.7775705 43.2219129,21.5611201 C43.1413892,21.3445297 43.0259344,21.1573218 42.8759694,20.9996362 C42.7260044,20.8418107 42.5478421,20.7216227 42.3413421,20.6386523 C42.135263,20.5559618 41.9060369,20.5145466 41.6539442,20.5145466 C41.3162775,20.5145466 41.0202755,20.5881426 40.7655174,20.7349147 C40.5111802,20.8821066 40.3140794,21.0876435 40.1747761,21.3523651 C40.0353325,21.6170866 39.9658913,21.92868 39.9658913,22.2865858 C39.9658913,22.5539657 40.0060128,22.7971401 40.0863963,23.0163889 C40.1669201,23.2356376 40.2806915,23.4239649 40.427991,23.5817904 C40.5755711,23.7391961 40.7537335,23.8609233 40.9626183,23.9462722 C41.1719239,24.0320408 41.4022724,24.0747153 41.6539442,24.0747153 M41.670077,25.2214687 C41.2413651,25.2214687 40.8460412,25.1463337 40.484526,24.9967633 C40.1225899,24.8471928 39.804984,24.6388575 39.5317083,24.3714776 C39.2581519,24.1040977 39.0464614,23.7927841 38.8964965,23.4372569 C38.7462509,23.0817297 38.6711983,22.6984992 38.6711983,22.2865858 C38.6711983,21.8696354 38.7462509,21.4847258 38.8964965,21.131997 C39.0464614,20.7791282 39.2553462,20.4701932 39.5234314,20.2058914 C39.7916569,19.9413098 40.1064571,19.7353531 40.4683932,19.5884411 C40.8299084,19.4412492 41.2252323,19.3676532 41.6539442,19.3676532 C42.0774655,19.3676532 42.470124,19.4412492 42.8320601,19.5884411 C43.1935753,19.7353531 43.5100589,19.9413098 43.780529,20.2058914 C44.0514199,20.4701932 44.2617075,20.7803875 44.4116725,21.1359146 C44.5616375,21.4913019 44.637111,21.8777505 44.637111,22.2948408 C44.637111,22.7063345 44.5616375,23.0899848 44.4116725,23.4450922 C44.2617075,23.8010391 44.0525421,24.1106737 43.7847375,24.3753953 C43.5166523,24.6401168 43.2018521,24.8471928 42.8399161,24.9967633 C42.4784009,25.1463337 42.0881272,25.2214687 41.670077,25.2214687" id="Fill-11" fill="#10172A"></path>
                        <polygon id="Fill-13" fill="#10172A" points="46.4055754 19.4639996 45.441114 19.4639996 45.441114 25.1251504 46.7031205 25.1251504 46.7031205 22.9039802 49.2438275 22.9039802 49.2438275 21.8214482 46.7031205 21.8214482 46.7031205 20.5465315 49.3721885 20.5465315 49.3721885 19.4639996 46.7031205 19.4639996"></polygon>
                        <polygon id="Fill-15" fill="#10172A" points="54.1156271 20.5465874 54.1156271 19.4640555 51.4465591 19.4640555 51.149014 19.4640555 50.1844123 19.4640555 50.1844123 25.1252064 51.4465591 25.1252064 51.4465591 22.9040361 53.987266 22.9040361 53.987266 21.8213643 51.4465591 21.8213643 51.4465591 20.5465874"></polygon>
                    </g>
                </g>
            </g>
        </g>
    </g>
</svg>